<?xml version="1.0" encoding="UTF-8"?>
<!DOCTYPE svg PUBLIC "-//W3C//DTD SVG 1.1//EN" "http://www.w3.org/Graphics/SVG/1.1/DTD/svg11.dtd">
<svg xmlns="http://www.w3.org/2000/svg" version="1.1" width="2000px" height="2000px" style="shape-rendering:geometricPrecision; text-rendering:geometricPrecision; image-rendering:optimizeQuality; fill-rule:evenodd; clip-rule:evenodd" xmlns:xlink="http://www.w3.org/1999/xlink">
<g><path style="opacity:1" fill="#fefefe" d="M -0.5,-0.5 C 666.167,-0.5 1332.83,-0.5 1999.5,-0.5C 1999.5,666.167 1999.5,1332.83 1999.5,1999.5C 1332.83,1999.5 666.167,1999.5 -0.5,1999.5C -0.5,1332.83 -0.5,666.167 -0.5,-0.5 Z"/></g>
<g><path style="opacity:1" fill="#ccd4f9" d="M 1132.5,226.5 C 1136.5,226.5 1140.5,226.5 1144.5,226.5C 1144.5,236.833 1144.5,247.167 1144.5,257.5C 1154.17,257.5 1163.83,257.5 1173.5,257.5C 1173.5,260.833 1173.5,264.167 1173.5,267.5C 1163.83,267.334 1154.16,267.5 1144.5,268C 1143.51,277.75 1143.18,287.584 1143.5,297.5C 1139.83,297.5 1136.17,297.5 1132.5,297.5C 1132.5,287.833 1132.5,278.167 1132.5,268.5C 1122.5,268.5 1112.5,268.5 1102.5,268.5C 1102.5,264.5 1102.5,260.5 1102.5,256.5C 1112.5,256.5 1122.5,256.5 1132.5,256.5C 1132.5,246.5 1132.5,236.5 1132.5,226.5 Z"/></g>
<g><path style="opacity:1" fill="#e2e6fe" d="M 1438.5,248.5 C 1445.97,248.469 1449.47,252.136 1449,259.5C 1446.6,265.092 1442.43,266.925 1436.5,265C 1430.67,258.622 1431.34,253.122 1438.5,248.5 Z"/></g>
<g><path style="opacity:1" fill="#e2e6fe" d="M 703.5,257.5 C 721.832,256.986 727.999,265.319 722,282.5C 715.402,289.043 707.902,290.209 699.5,286C 692.63,278.8 691.797,270.967 697,262.5C 699.326,260.934 701.492,259.268 703.5,257.5 Z"/></g>
<g><path style="opacity:1" fill="#ccd3f9" d="M 1032.5,297.5 C 1034.5,297.5 1036.5,297.5 1038.5,297.5C 1038.5,302.5 1038.5,307.5 1038.5,312.5C 1043.5,312.5 1048.5,312.5 1053.5,312.5C 1053.5,314.5 1053.5,316.5 1053.5,318.5C 1048.5,318.5 1043.5,318.5 1038.5,318.5C 1038.5,323.5 1038.5,328.5 1038.5,333.5C 1036.83,333.5 1035.17,333.5 1033.5,333.5C 1033.5,328.5 1033.5,323.5 1033.5,318.5C 1028.17,318.5 1022.83,318.5 1017.5,318.5C 1017.5,316.5 1017.5,314.5 1017.5,312.5C 1022.5,312.5 1027.5,312.5 1032.5,312.5C 1032.5,307.5 1032.5,302.5 1032.5,297.5 Z"/></g>
<g><path style="opacity:1" fill="#f9ab45" d="M 868.5,264.5 C 877.953,264.04 885.786,267.373 892,274.5C 919.418,317.004 947.085,359.338 975,401.5C 982.444,411.895 982.277,422.061 974.5,432C 971.833,433.333 969.167,434.667 966.5,436C 904.167,436.667 841.833,436.667 779.5,436C 764.934,429.392 761.434,418.892 769,404.5C 797.727,361.437 826.06,318.103 854,274.5C 858.208,270.103 863.042,266.769 868.5,264.5 Z"/></g>
<g><path style="opacity:1" fill="#fece73" d="M 870.5,283.5 C 873.652,282.959 876.152,283.959 878,286.5C 905.418,329.004 933.085,371.338 961,413.5C 962.009,415.025 962.509,416.692 962.5,418.5C 902.833,418.5 843.167,418.5 783.5,418.5C 783.491,416.692 783.991,415.025 785,413.5C 813.262,369.967 841.762,326.634 870.5,283.5 Z"/></g>
<g><path style="opacity:1" fill="#fffdfa" d="M 864.5,322.5 C 870.167,322.5 875.833,322.5 881.5,322.5C 880.802,341.187 879.802,359.853 878.5,378.5C 874.833,378.5 871.167,378.5 867.5,378.5C 866.057,359.859 865.057,341.192 864.5,322.5 Z"/></g>
<g><path style="opacity:1" fill="#cbd3f9" d="M 560.5,346.5 C 563.833,346.5 567.167,346.5 570.5,346.5C 570.5,355.5 570.5,364.5 570.5,373.5C 579.167,373.5 587.833,373.5 596.5,373.5C 596.5,376.5 596.5,379.5 596.5,382.5C 587.833,382.5 579.167,382.5 570.5,382.5C 570.5,391.5 570.5,400.5 570.5,409.5C 567.167,409.5 563.833,409.5 560.5,409.5C 560.5,400.833 560.5,392.167 560.5,383.5C 551.833,383.5 543.167,383.5 534.5,383.5C 534.5,380.167 534.5,376.833 534.5,373.5C 543.167,373.5 551.833,373.5 560.5,373.5C 560.5,364.5 560.5,355.5 560.5,346.5 Z"/></g>
<g><path style="opacity:1" fill="#f1f1f1" d="M 1542.5,765.5 C 1542.1,760.578 1539.77,756.745 1535.5,754C 1530.42,751.679 1525.75,752.345 1521.5,756C 1519,758.5 1516.5,761 1514,763.5C 1512.51,762.845 1511.35,761.845 1510.5,760.5C 1512.04,755.891 1513.37,751.225 1514.5,746.5C 1513.05,739.182 1508.55,735.516 1501,735.5C 1498.27,735.615 1495.77,736.448 1493.5,738C 1490.67,742.444 1488.67,747.278 1487.5,752.5C 1485.65,753.83 1484.15,753.497 1483,751.5C 1482.62,737.424 1475.78,732.258 1462.5,736C 1461,737.5 1459.5,739 1458,740.5C 1457.43,746.245 1457.93,751.912 1459.5,757.5C 1459.47,759.704 1458.47,760.538 1456.5,760C 1453.13,756.297 1449.47,752.964 1445.5,750C 1438.42,748.123 1432.92,750.289 1429,756.5C 1428.34,759.888 1428.51,763.221 1429.5,766.5C 1404.24,765.51 1378.91,765.177 1353.5,765.5C 1334.17,765.5 1314.83,765.5 1295.5,765.5C 1243.17,765.5 1190.83,765.5 1138.5,765.5C 1138.5,760.833 1138.5,756.167 1138.5,751.5C 1138.5,738.167 1138.5,724.833 1138.5,711.5C 1138.5,709.833 1138.5,708.167 1138.5,706.5C 1138.5,695.833 1138.5,685.167 1138.5,674.5C 1138.5,610.833 1138.5,547.167 1138.5,483.5C 1138.5,468.167 1138.5,452.833 1138.5,437.5C 1138.5,413.833 1138.5,390.167 1138.5,366.5C 1315.17,366.5 1491.83,366.5 1668.5,366.5C 1668.5,499.5 1668.5,632.5 1668.5,765.5C 1626.5,765.5 1584.5,765.5 1542.5,765.5 Z"/></g>
<g><path style="opacity:1" fill="#fefcf9" d="M 869.5,388.5 C 879.82,388.411 882.154,392.578 876.5,401C 868.333,402.833 865.167,399.667 867,391.5C 868.045,390.627 868.878,389.627 869.5,388.5 Z"/></g>
<g><path style="opacity:1" fill="#e2e8f4" d="M 1637.5,391.5 C 1481.5,391.5 1325.5,391.5 1169.5,391.5C 1169.5,412.5 1169.5,433.5 1169.5,454.5C 1168.5,433.34 1168.17,412.007 1168.5,390.5C 1325,390.167 1481.33,390.5 1637.5,391.5 Z"/></g>
<g><path style="opacity:1" fill="#d2def7" d="M 1637.5,391.5 C 1638.5,412.66 1638.83,433.993 1638.5,455.5C 1482,455.833 1325.67,455.5 1169.5,454.5C 1169.5,433.5 1169.5,412.5 1169.5,391.5C 1325.5,391.5 1481.5,391.5 1637.5,391.5 Z"/></g>
<g><path style="opacity:1" fill="#f1f1f2" d="M 1580.5,398.5 C 1586.76,403.417 1592.76,408.751 1598.5,414.5C 1604.17,409.167 1609.83,403.833 1615.5,398.5C 1618.74,400.548 1620.91,403.215 1622,406.5C 1616.65,411.681 1611.48,417.015 1606.5,422.5C 1611.83,428.167 1617.17,433.833 1622.5,439.5C 1620.45,442.743 1617.79,444.91 1614.5,446C 1609.32,440.652 1603.99,435.485 1598.5,430.5C 1592.83,435.833 1587.17,441.167 1581.5,446.5C 1578.26,444.452 1576.09,441.785 1575,438.5C 1580.35,433.319 1585.52,427.985 1590.5,422.5C 1585.17,416.833 1579.83,411.167 1574.5,405.5C 1576.52,403.147 1578.52,400.814 1580.5,398.5 Z"/></g>
<g><path style="opacity:1" fill="#eb7360" d="M 407.5,434.5 C 412.969,433.71 417.469,435.377 421,439.5C 423.098,444.291 424.265,449.291 424.5,454.5C 426.167,454.5 427.833,454.5 429.5,454.5C 429.707,447.444 432.374,441.61 437.5,437C 445.242,434.581 451.409,436.748 456,443.5C 456.537,449.622 455.37,455.455 452.5,461C 453.535,462.274 454.702,463.44 456,464.5C 459.581,460.248 463.748,456.748 468.5,454C 480.702,453.538 485.869,459.371 484,471.5C 480.721,474.779 477.387,478.113 474,481.5C 473.085,483.92 473.918,485.253 476.5,485.5C 481.351,483.534 486.351,482.701 491.5,483C 499.16,486.841 501.66,493.008 499,501.5C 498.044,502.579 497.211,503.745 496.5,505C 491.037,507.282 485.371,508.782 479.5,509.5C 479.286,511.144 479.62,512.644 480.5,514C 487.386,514.946 493.219,517.779 498,522.5C 500.3,535.864 494.8,541.697 481.5,540C 478.736,539.468 476.07,538.634 473.5,537.5C 471.525,538.275 470.691,539.609 471,541.5C 476.563,545.374 480.063,550.541 481.5,557C 479.249,566.58 473.249,570.58 463.5,569C 459.721,565.221 455.887,561.387 452,557.5C 450.603,558.226 449.769,559.393 449.5,561C 451.741,567.143 451.907,573.31 450,579.5C 443.862,585.293 437.195,585.96 430,581.5C 427.717,576.372 426.051,571.038 425,565.5C 423.644,564.62 422.144,564.286 420.5,564.5C 419.711,569.702 418.211,574.702 416,579.5C 408.432,585.263 401.432,584.597 395,577.5C 393.142,570.73 393.976,564.23 397.5,558C 396.362,555.955 394.695,555.288 392.5,556C 389.465,559.37 386.132,562.37 382.5,565C 375.989,566.874 370.822,565.041 367,559.5C 365.496,555.961 365.163,552.295 366,548.5C 368.964,544.534 372.297,540.867 376,537.5C 376.699,535.926 376.365,534.593 375,533.5C 369.355,535.603 363.522,536.436 357.5,536C 351.03,531.874 348.863,526.041 351,518.5C 351.785,516.714 352.951,515.214 354.5,514C 359.401,512.186 364.401,510.686 369.5,509.5C 370.429,508.311 370.762,506.978 370.5,505.5C 366.038,504.847 361.705,503.68 357.5,502C 353.069,499.738 351.069,496.071 351.5,491C 351.505,483.5 355.172,479.333 362.5,478.5C 367.489,479.331 372.323,480.664 377,482.5C 377.956,481.421 378.789,480.255 379.5,479C 375.618,474.786 372.118,470.286 369,465.5C 368.275,458.454 371.108,453.287 377.5,450C 381.452,449.088 385.119,449.755 388.5,452C 391.5,455 394.5,458 397.5,461C 399.923,461.348 400.923,460.182 400.5,457.5C 398.745,452.283 398.245,446.95 399,441.5C 401.217,438.323 404.05,435.989 407.5,434.5 Z"/></g>
<g><path style="opacity:1" fill="#6f7fdd" d="M 654.5,438.5 C 815.5,438.5 976.5,438.5 1137.5,438.5C 1137.5,453.167 1137.5,467.833 1137.5,482.5C 1133.63,482.185 1129.96,482.518 1126.5,483.5C 1122.69,490.811 1117.02,496.311 1109.5,500C 1085.33,510.921 1060,517.587 1033.5,520C 979.251,526.922 925.584,523.922 872.5,511C 861.283,508.038 850.616,503.705 840.5,498C 835.121,494.288 830.787,489.621 827.5,484C 770.834,483.5 714.168,483.333 657.5,483.5C 657.5,604.833 657.5,726.167 657.5,847.5C 638.158,846.502 619.158,848.502 600.5,853.5C 600.5,821.833 600.5,790.167 600.5,758.5C 613.834,759.175 621.501,752.842 623.5,739.5C 623.162,733.988 620.829,729.488 616.5,726C 611.5,723.167 606.5,720.333 601.5,717.5C 600.534,715.604 600.201,713.604 600.5,711.5C 607.508,711.666 614.508,711.5 621.5,711C 631.077,708.58 635.411,702.414 634.5,692.5C 635.025,683.177 630.691,677.343 621.5,675C 614.508,674.5 607.508,674.334 600.5,674.5C 600.201,672.396 600.534,670.396 601.5,668.5C 608.263,665.372 614.43,661.372 620,656.5C 625.653,646.249 623.82,637.416 614.5,630C 610.078,627.896 605.412,627.063 600.5,627.5C 600.333,580.499 600.5,533.499 601,486.5C 607.245,457.477 625.078,441.477 654.5,438.5 Z"/></g>
<g><path style="opacity:1" fill="#a1abe7" d="M 654.5,438.5 C 815.666,437.5 976.999,437.167 1138.5,437.5C 1138.5,452.833 1138.5,468.167 1138.5,483.5C 1134.5,483.5 1130.5,483.5 1126.5,483.5C 1129.96,482.518 1133.63,482.185 1137.5,482.5C 1137.5,467.833 1137.5,453.167 1137.5,438.5C 976.5,438.5 815.5,438.5 654.5,438.5 Z"/></g>
<g><path style="opacity:1" fill="#fefdfd" d="M 415.5,472.5 C 439.005,469.655 454.505,479.322 462,501.5C 464.678,525.317 454.512,540.484 431.5,547C 408.995,548.996 394.495,539.162 388,517.5C 385.495,495.207 394.661,480.207 415.5,472.5 Z"/></g>
<g><path style="opacity:1" fill="#e2e6fe" d="M 245.5,481.5 C 256.423,481.19 259.757,486.024 255.5,496C 245.697,500.538 240.863,497.372 241,486.5C 242.707,484.963 244.207,483.296 245.5,481.5 Z"/></g>
<g><path style="opacity:1" fill="#ea7260" d="M 1481.5,541.5 C 1458.17,564.167 1435.17,587.167 1412.5,610.5C 1397.5,624.833 1382.83,639.5 1368.5,654.5C 1357.83,664.5 1347.5,674.833 1337.5,685.5C 1328.85,693.812 1320.19,702.145 1311.5,710.5C 1308.35,707.85 1305.35,705.016 1302.5,702C 1309.04,695.631 1315.37,689.131 1321.5,682.5C 1334.55,670.448 1346.89,657.781 1358.5,644.5C 1374.12,630.552 1389.12,615.886 1403.5,600.5C 1424.83,579.833 1445.83,558.833 1466.5,537.5C 1475.13,529.369 1483.63,521.036 1492,512.5C 1495.02,515.349 1497.85,518.349 1500.5,521.5C 1494.15,528.187 1487.81,534.854 1481.5,541.5 Z"/></g>
<g><path style="opacity:1" fill="#6f7fdd" d="M 1466.5,537.5 C 1445.83,558.833 1424.83,579.833 1403.5,600.5C 1394.02,588.021 1392.02,574.355 1397.5,559.5C 1393.47,558.334 1389.47,558.501 1385.5,560C 1356.59,571.987 1344.42,593.487 1349,624.5C 1350.85,631.861 1354.02,638.528 1358.5,644.5C 1346.89,657.781 1334.55,670.448 1321.5,682.5C 1279.8,671.488 1242.47,652.321 1209.5,625C 1205.33,620.833 1201.17,616.667 1197,612.5C 1196.33,611.833 1196.33,611.167 1197,610.5C 1246.35,564.419 1304.85,538.253 1372.5,532C 1404.09,529.997 1435.43,531.831 1466.5,537.5 Z"/></g>
<g><path style="opacity:1" fill="#6f7fdd" d="M 1481.5,541.5 C 1530.2,553.343 1572.2,576.843 1607.5,612C 1569.65,649.101 1524.65,673.434 1472.5,685C 1430.36,693.799 1388.03,694.799 1345.5,688C 1342.69,687.218 1340.02,686.384 1337.5,685.5C 1347.5,674.833 1357.83,664.5 1368.5,654.5C 1381.46,664.572 1396.13,668.072 1412.5,665C 1435.77,659.396 1449.94,644.896 1455,621.5C 1455.81,619.421 1455.64,617.421 1454.5,615.5C 1439.59,620.824 1425.59,619.158 1412.5,610.5C 1435.17,587.167 1458.17,564.167 1481.5,541.5 Z"/></g>
<g><path style="opacity:1" fill="#fdce74" d="M 1403.5,600.5 C 1389.12,615.886 1374.12,630.552 1358.5,644.5C 1354.02,638.528 1350.85,631.861 1349,624.5C 1344.42,593.487 1356.59,571.987 1385.5,560C 1389.47,558.501 1393.47,558.334 1397.5,559.5C 1392.02,574.355 1394.02,588.021 1403.5,600.5 Z"/></g>
<g><path style="opacity:1" fill="#f9ab44" d="M 600.5,627.5 C 605.412,627.063 610.078,627.896 614.5,630C 623.82,637.416 625.653,646.249 620,656.5C 614.43,661.372 608.263,665.372 601.5,668.5C 600.534,670.396 600.201,672.396 600.5,674.5C 607.508,674.334 614.508,674.5 621.5,675C 630.691,677.343 635.025,683.177 634.5,692.5C 635.411,702.414 631.077,708.58 621.5,711C 614.508,711.5 607.508,711.666 600.5,711.5C 600.201,713.604 600.534,715.604 601.5,717.5C 606.5,720.333 611.5,723.167 616.5,726C 620.829,729.488 623.162,733.988 623.5,739.5C 621.501,752.842 613.834,759.175 600.5,758.5C 594.148,755.573 587.981,752.24 582,748.5C 580.981,749.687 579.814,750.687 578.5,751.5C 577.417,752.365 577.251,753.365 578,754.5C 581.252,759.334 584.252,764.334 587,769.5C 589.998,781.189 585.831,789.022 574.5,793C 568.903,794.091 563.57,793.424 558.5,791C 554.126,785.089 550.126,778.922 546.5,772.5C 544.604,771.534 542.604,771.201 540.5,771.5C 540.666,778.841 540.5,786.174 540,793.5C 538.257,798.91 534.757,802.744 529.5,805C 524.5,805.667 519.5,805.667 514.5,805C 508.896,802.614 505.563,798.447 504.5,792.5C 505.128,785.087 504.461,778.087 502.5,771.5C 500.278,771.178 498.444,771.845 497,773.5C 494.037,779.933 490.203,785.766 485.5,791C 475.919,795.44 467.419,793.94 460,786.5C 456.898,781.608 455.898,776.275 457,770.5C 460.301,764.731 463.468,758.897 466.5,753C 465.899,751.395 464.899,750.062 463.5,749C 457.367,751.4 451.367,754.4 445.5,758C 433.018,760.676 425.184,755.843 422,743.5C 420.479,737.123 421.979,731.623 426.5,727C 432.002,723.415 437.669,720.081 443.5,717C 443.854,715.374 443.854,713.541 443.5,711.5C 436.159,711.666 428.826,711.5 421.5,711C 411.12,706.068 407.287,697.901 410,686.5C 411.198,682.254 413.698,679.087 417.5,677C 426.058,675.559 434.724,675.059 443.5,675.5C 443.261,673.533 443.594,671.699 444.5,670C 438.998,666.415 433.331,663.081 427.5,660C 419.666,651.08 419.499,641.914 427,632.5C 431.922,627.798 437.755,626.298 444.5,628C 450.157,630.493 455.49,633.493 460.5,637C 463.494,637.365 465.494,636.031 466.5,633C 463.801,627.769 460.968,622.602 458,617.5C 454.195,605.297 458.362,597.13 470.5,593C 479.501,590.754 486.334,593.587 491,601.5C 493.333,605.833 495.667,610.167 498,614.5C 500.027,614.986 502.193,614.986 504.5,614.5C 504.059,605.724 504.559,597.058 506,588.5C 511.969,580.876 519.802,578.376 529.5,581C 534.333,583.167 537.833,586.667 540,591.5C 540.5,599.159 540.666,606.826 540.5,614.5C 542.599,615.231 544.599,615.231 546.5,614.5C 549.667,608.833 552.833,603.167 556,597.5C 568.152,589.431 578.486,591.431 587,603.5C 587.667,607.833 587.667,612.167 587,616.5C 583.4,622.367 580.4,628.367 578,634.5C 579.062,635.899 580.395,636.899 582,637.5C 588.258,634.289 594.424,630.955 600.5,627.5 Z"/></g>
<g><path style="opacity:1" fill="#fdce73" d="M 1412.5,610.5 C 1425.59,619.158 1439.59,620.824 1454.5,615.5C 1455.64,617.421 1455.81,619.421 1455,621.5C 1449.94,644.896 1435.77,659.396 1412.5,665C 1396.13,668.072 1381.46,664.572 1368.5,654.5C 1382.83,639.5 1397.5,624.833 1412.5,610.5 Z"/></g>
<g><path style="opacity:1" fill="#fefefe" d="M 512.5,637.5 C 545.515,635.416 567.015,650.083 577,681.5C 580.528,710.95 569.028,732.117 542.5,745C 514.41,753.859 491.91,746.359 475,722.5C 459.601,692.032 465.434,666.532 492.5,646C 498.889,642.3 505.556,639.466 512.5,637.5 Z"/></g>
<g><path style="opacity:1" fill="#cad2f8" d="M 282.5,671.5 C 284.167,671.5 285.833,671.5 287.5,671.5C 287.5,676.5 287.5,681.5 287.5,686.5C 292.5,686.5 297.5,686.5 302.5,686.5C 302.5,688.167 302.5,689.833 302.5,691.5C 297.5,691.5 292.5,691.5 287.5,691.5C 287.5,696.5 287.5,701.5 287.5,706.5C 285.833,706.5 284.167,706.5 282.5,706.5C 282.5,701.5 282.5,696.5 282.5,691.5C 277.167,691.5 271.833,691.5 266.5,691.5C 266.5,689.833 266.5,688.167 266.5,686.5C 271.511,686.666 276.511,686.499 281.5,686C 282.469,681.263 282.803,676.43 282.5,671.5 Z"/></g>
<g><path style="opacity:1" fill="#b0c2ea" d="M 1138.5,674.5 C 1138.5,685.167 1138.5,695.833 1138.5,706.5C 1014.83,706.5 891.167,706.5 767.5,706.5C 767.5,707.833 767.5,709.167 767.5,710.5C 891.237,710.169 1014.9,710.502 1138.5,711.5C 1138.5,724.833 1138.5,738.167 1138.5,751.5C 1014.83,751.5 891.167,751.5 767.5,751.5C 767.5,752.833 767.5,754.167 767.5,755.5C 890.833,755.5 1014.17,755.5 1137.5,755.5C 1137.19,759.042 1137.52,762.375 1138.5,765.5C 1167.66,766.498 1197,766.831 1226.5,766.5C 1226.67,783.837 1226.5,801.17 1226,818.5C 1224.4,823.099 1221.24,825.932 1216.5,827C 1069.83,827.333 923.167,827.667 776.5,828C 758.627,837.186 741.127,847.019 724,857.5C 723.333,800.5 723.333,743.5 724,686.5C 724.957,680.873 728.124,677.04 733.5,675C 868.5,674.5 1003.5,674.333 1138.5,674.5 Z"/></g>
<g><path style="opacity:1" fill="#d2dcf8" d="M 1138.5,706.5 C 1138.5,708.167 1138.5,709.833 1138.5,711.5C 1014.9,710.502 891.237,710.169 767.5,710.5C 767.5,709.167 767.5,707.833 767.5,706.5C 891.167,706.5 1014.83,706.5 1138.5,706.5 Z"/></g>
<g><path style="opacity:1" fill="#eb7360" d="M 1542.5,765.5 C 1540.8,772.046 1536.97,777.046 1531,780.5C 1530.56,782.296 1531.23,783.629 1533,784.5C 1539.02,781.542 1545.19,781.042 1551.5,783C 1558.9,789.728 1559.24,796.728 1552.5,804C 1547.67,805.867 1542.67,807.034 1537.5,807.5C 1537.5,809.167 1537.5,810.833 1537.5,812.5C 1542.7,813.287 1547.7,814.787 1552.5,817C 1557.3,822.042 1557.8,827.542 1554,833.5C 1550.21,838.153 1545.38,839.653 1539.5,838C 1536.06,836.165 1532.56,835.665 1529,836.5C 1528.33,837.5 1528.33,838.5 1529,839.5C 1532.37,842.535 1535.37,845.868 1538,849.5C 1539.87,856.011 1538.04,861.178 1532.5,865C 1528.96,866.504 1525.29,866.837 1521.5,866C 1517.5,863.333 1514.17,860 1511.5,856C 1508.77,855.058 1507.44,856.058 1507.5,859C 1509.81,864.792 1509.98,870.625 1508,876.5C 1500.93,883.106 1493.93,883.106 1487,876.5C 1485.84,872.203 1484.84,867.869 1484,863.5C 1482.33,860.833 1480.67,860.833 1479,863.5C 1477.93,868.383 1476.26,873.05 1474,877.5C 1466.51,882.147 1459.84,881.147 1454,874.5C 1452.43,867.764 1453.26,861.264 1456.5,855C 1455.42,854.044 1454.25,853.211 1453,852.5C 1449.42,856.752 1445.25,860.252 1440.5,863C 1432.44,863.964 1427.28,860.464 1425,852.5C 1424.33,850.5 1424.33,848.5 1425,846.5C 1428.31,842.019 1432.15,838.019 1436.5,834.5C 1436.17,832.833 1435.17,831.833 1433.5,831.5C 1429.26,832.882 1424.92,833.882 1420.5,834.5C 1413.4,832.896 1409.74,828.396 1409.5,821C 1409.8,816.691 1411.8,813.357 1415.5,811C 1420,809.208 1424.67,808.375 1429.5,808.5C 1429.5,806.833 1429.5,805.167 1429.5,803.5C 1422.4,803.418 1416.56,800.752 1412,795.5C 1409.6,788.362 1411.43,782.528 1417.5,778C 1423.7,777.231 1429.7,778.064 1435.5,780.5C 1437.64,779.883 1438.47,778.549 1438,776.5C 1434.58,773.588 1431.75,770.254 1429.5,766.5C 1428.51,763.221 1428.34,759.888 1429,756.5C 1432.92,750.289 1438.42,748.123 1445.5,750C 1449.47,752.964 1453.13,756.297 1456.5,760C 1458.47,760.538 1459.47,759.704 1459.5,757.5C 1457.93,751.912 1457.43,746.245 1458,740.5C 1459.5,739 1461,737.5 1462.5,736C 1475.78,732.258 1482.62,737.424 1483,751.5C 1484.15,753.497 1485.65,753.83 1487.5,752.5C 1488.67,747.278 1490.67,742.444 1493.5,738C 1495.77,736.448 1498.27,735.615 1501,735.5C 1508.55,735.516 1513.05,739.182 1514.5,746.5C 1513.37,751.225 1512.04,755.891 1510.5,760.5C 1511.35,761.845 1512.51,762.845 1514,763.5C 1516.5,761 1519,758.5 1521.5,756C 1525.75,752.345 1530.42,751.679 1535.5,754C 1539.77,756.745 1542.1,760.578 1542.5,765.5 Z"/></g>
<g><path style="opacity:1" fill="#d1dcf8" d="M 1138.5,751.5 C 1138.5,756.167 1138.5,760.833 1138.5,765.5C 1137.52,762.375 1137.19,759.042 1137.5,755.5C 1014.17,755.5 890.833,755.5 767.5,755.5C 767.5,754.167 767.5,752.833 767.5,751.5C 891.167,751.5 1014.83,751.5 1138.5,751.5 Z"/></g>
<g><path style="opacity:1" fill="#6f7fdd" d="M 1352.5,1276.5 C 1352.83,1309 1352.5,1341.34 1351.5,1373.5C 1339.87,1343.61 1327.87,1313.94 1315.5,1284.5C 1309.36,1268.08 1303.03,1251.74 1296.5,1235.5C 1296.5,1079.17 1296.5,922.833 1296.5,766.5C 1315.17,766.5 1333.83,766.5 1352.5,766.5C 1352.5,936.5 1352.5,1106.5 1352.5,1276.5 Z"/></g>
<g><path style="opacity:1" fill="#c1cef1" d="M 1126.5,483.5 C 1130.5,483.5 1134.5,483.5 1138.5,483.5C 1138.5,547.167 1138.5,610.833 1138.5,674.5C 1003.5,674.333 868.5,674.5 733.5,675C 728.124,677.04 724.957,680.873 724,686.5C 723.333,743.5 723.333,800.5 724,857.5C 741.127,847.019 758.627,837.186 776.5,828C 923.167,827.667 1069.83,827.333 1216.5,827C 1221.24,825.932 1224.4,823.099 1226,818.5C 1226.5,801.17 1226.67,783.837 1226.5,766.5C 1197,766.831 1167.66,766.498 1138.5,765.5C 1190.83,765.5 1243.17,765.5 1295.5,765.5C 1295.5,921.5 1295.5,1077.5 1295.5,1233.5C 1292.42,1226.79 1289.42,1219.96 1286.5,1213C 1271.5,1212.5 1256.5,1212.33 1241.5,1212.5C 1236.24,1212.2 1231.07,1212.53 1226,1213.5C 1216.73,1236.48 1207.56,1259.48 1198.5,1282.5C 1194.64,1290.75 1190.97,1299.08 1187.5,1307.5C 1036.17,1307.33 884.833,1307.5 733.5,1308C 729.74,1309.46 726.907,1311.96 725,1315.5C 723.849,1345.12 723.349,1374.79 723.5,1404.5C 723.833,1432.83 724.167,1461.17 724.5,1489.5C 742.198,1479.99 759.865,1470.49 777.5,1461C 893.5,1460.5 1009.5,1460.33 1125.5,1460.5C 1119.69,1475.92 1113.69,1491.25 1107.5,1506.5C 1101.2,1521.77 1094.87,1537.1 1088.5,1552.5C 949.5,1552.5 810.5,1552.5 671.5,1552.5C 667.833,1543.83 664.167,1535.17 660.5,1526.5C 659.361,1523.08 658.028,1519.75 656.5,1516.5C 657.499,1415.67 657.833,1314.67 657.5,1213.5C 714.372,1208.74 760.372,1184.07 795.5,1139.5C 809.167,1139.5 822.833,1139.5 836.5,1139.5C 818.833,1157.83 800.833,1175.83 782.5,1193.5C 758.534,1188.73 740.701,1197.07 729,1218.5C 723.083,1234.67 724.75,1250 734,1264.5C 737.429,1268.44 741.263,1271.77 745.5,1274.5C 747.253,1276.22 749.253,1277.72 751.5,1279C 765.824,1284.23 779.824,1283.56 793.5,1277C 795.314,1274.52 795.98,1271.69 795.5,1268.5C 796.309,1270.29 796.809,1272.29 797,1274.5C 806.362,1267.77 812.196,1258.77 814.5,1247.5C 820.298,1252.8 825.965,1258.3 831.5,1264C 832.167,1264.67 832.833,1264.67 833.5,1264C 881.014,1216.32 928.68,1168.82 976.5,1121.5C 1024.5,1169.17 1072.5,1216.83 1120.5,1264.5C 1140.83,1244.83 1160.83,1224.83 1180.5,1204.5C 1159.48,1183.15 1138.48,1161.81 1117.5,1140.5C 1136,1139.34 1154.66,1139.17 1173.5,1140C 1188.46,1147.48 1203.12,1155.48 1217.5,1164C 1220.56,1165.2 1223.56,1166.37 1226.5,1167.5C 1226.67,1110.17 1226.5,1052.83 1226,995.5C 1224.41,990.948 1221.25,988.115 1216.5,987C 1181.66,986.832 1147,986.332 1112.5,985.5C 1124.17,973.167 1136.17,961.167 1148.5,949.5C 1151.82,951.808 1155.15,954.141 1158.5,956.5C 1174.45,966.599 1190.78,967.099 1207.5,958C 1208.45,954.943 1208.78,951.777 1208.5,948.5C 1209.32,950.969 1209.82,953.635 1210,956.5C 1229.05,940.925 1234.05,921.592 1225,898.5C 1211.65,876.488 1192.48,868.988 1167.5,876C 1162.15,878.003 1157.49,881.003 1153.5,885C 1152.55,885.483 1151.55,885.649 1150.5,885.5C 1140.7,876.202 1131.03,866.702 1121.5,857C 1120.83,856.333 1120.17,856.333 1119.5,857C 1071.99,904.68 1024.32,952.18 976.5,999.5C 928.5,951.833 880.5,904.167 832.5,856.5C 815.479,872.854 798.812,889.521 782.5,906.5C 748.568,871.04 706.902,851.373 657.5,847.5C 657.5,726.167 657.5,604.833 657.5,483.5C 714.168,483.333 770.834,483.5 827.5,484C 830.787,489.621 835.121,494.288 840.5,498C 850.616,503.705 861.283,508.038 872.5,511C 925.584,523.922 979.251,526.922 1033.5,520C 1060,517.587 1085.33,510.921 1109.5,500C 1117.02,496.311 1122.69,490.811 1126.5,483.5 Z"/></g>
<g><path style="opacity:1" fill="#d1dcf8" d="M 795.5,640.5 C 795.777,643.448 795.444,646.281 794.5,649C 781.764,655.964 768.43,657.297 754.5,653C 751.102,651.643 748.102,649.81 745.5,647.5C 745.571,632.941 752.571,623.774 766.5,620C 781.805,618.977 791.471,625.81 795.5,640.5 Z"/></g>
<g><path style="opacity:1" fill="#b0c1ea" d="M 795.5,640.5 C 791.471,625.81 781.805,618.977 766.5,620C 752.571,623.774 745.571,632.941 745.5,647.5C 726.809,633.923 720.976,615.923 728,593.5C 741.84,566.735 763.007,558.569 791.5,569C 813.394,582.974 820.56,602.474 813,627.5C 809.126,635.37 803.792,642.037 797,647.5C 796.814,644.964 796.314,642.631 795.5,640.5 Z"/></g>
<g><path style="opacity:1" fill="#d1dcf8" d="M 767.5,590.5 C 781.22,590.94 785.72,597.607 781,610.5C 772.482,617.936 765.149,616.936 759,607.5C 756.878,599.174 759.711,593.507 767.5,590.5 Z"/></g>
<g><path style="opacity:1" fill="#aeb9ed" d="M 1295.5,765.5 C 1314.83,765.5 1334.17,765.5 1353.5,765.5C 1353.5,935.5 1353.5,1105.5 1353.5,1275.5C 1353.5,1275.83 1353.5,1276.17 1353.5,1276.5C 1353.17,1276.5 1352.83,1276.5 1352.5,1276.5C 1352.5,1106.5 1352.5,936.5 1352.5,766.5C 1333.83,766.5 1315.17,766.5 1296.5,766.5C 1296.5,922.833 1296.5,1079.17 1296.5,1235.5C 1295.66,1235.16 1295.33,1234.49 1295.5,1233.5C 1295.5,1077.5 1295.5,921.5 1295.5,765.5 Z"/></g>
<g><path style="opacity:1" fill="#fefdfd" d="M 1478.5,770.5 C 1497.89,770.061 1511.39,778.727 1519,796.5C 1523.32,824.535 1511.48,840.869 1483.5,845.5C 1457.52,841.688 1445.35,826.688 1447,800.5C 1451.87,784.456 1462.37,774.456 1478.5,770.5 Z"/></g>
<g><path style="opacity:1" fill="#fcd4a0" d="M 502.5,771.5 C 504.461,778.087 505.128,785.087 504.5,792.5C 503.801,785.6 503.134,778.6 502.5,771.5 Z"/></g>
<g><path style="opacity:1" fill="#d0dbf8" d="M 766.5,795.5 C 865.5,795.5 964.5,795.5 1063.5,795.5C 1063.5,797.167 1063.5,798.833 1063.5,800.5C 964.5,800.5 865.5,800.5 766.5,800.5C 766.5,798.833 766.5,797.167 766.5,795.5 Z"/></g>
<g><path style="opacity:1" fill="#fdcf73" d="M 657.5,847.5 C 706.902,851.373 748.568,871.04 782.5,906.5C 797.762,923.338 809.762,942.338 818.5,963.5C 825.191,981.226 829.191,999.559 830.5,1018.5C 830.5,1025.17 830.5,1031.83 830.5,1038.5C 830.489,1045.9 829.822,1053.23 828.5,1060.5C 827.532,1062.61 827.198,1064.94 827.5,1067.5C 821.132,1093.56 810.466,1117.56 795.5,1139.5C 760.372,1184.07 714.372,1208.74 657.5,1213.5C 657.167,1213.5 656.833,1213.5 656.5,1213.5C 637.523,1214.2 618.856,1212.2 600.5,1207.5C 535.744,1187.91 492.911,1145.91 472,1081.5C 454.329,1009.79 471.496,947.955 523.5,896C 545.653,875.728 571.32,861.561 600.5,853.5C 619.158,848.502 638.158,846.502 657.5,847.5 Z"/></g>
<g><path style="opacity:1" fill="#6f7fdd" d="M 1150.5,885.5 C 1157.5,893.167 1164.83,900.5 1172.5,907.5C 1175.14,910.48 1177.81,913.48 1180.5,916.5C 1179.14,918.186 1177.81,919.852 1176.5,921.5C 1166.83,930.5 1157.5,939.833 1148.5,949.5C 1136.17,961.167 1124.17,973.167 1112.5,985.5C 1101.17,996.167 1090.17,1007.17 1079.5,1018.5C 1077.83,1019.5 1076.5,1020.83 1075.5,1022.5C 1062.87,1034.63 1050.37,1046.96 1038,1059.5C 1038.08,1061.77 1039.24,1063.44 1041.5,1064.5C 1042.17,1065.83 1043.17,1066.83 1044.5,1067.5C 1057.83,1081.5 1071.5,1095.17 1085.5,1108.5C 1086.5,1110.17 1087.83,1111.5 1089.5,1112.5C 1098.5,1122.17 1107.83,1131.5 1117.5,1140.5C 1138.48,1161.81 1159.48,1183.15 1180.5,1204.5C 1160.83,1224.83 1140.83,1244.83 1120.5,1264.5C 1072.5,1216.83 1024.5,1169.17 976.5,1121.5C 928.68,1168.82 881.014,1216.32 833.5,1264C 832.833,1264.67 832.167,1264.67 831.5,1264C 825.965,1258.3 820.298,1252.8 814.5,1247.5C 800.869,1233.37 787.035,1219.37 773,1205.5C 772.333,1204.83 772.333,1204.17 773,1203.5C 776.371,1200.3 779.538,1196.96 782.5,1193.5C 800.833,1175.83 818.833,1157.83 836.5,1139.5C 860.833,1115.83 884.833,1091.83 908.5,1067.5C 910.167,1066.5 911.5,1065.17 912.5,1063.5C 914.446,1062.75 915.279,1061.41 915,1059.5C 902.965,1047.3 890.798,1035.3 878.5,1023.5C 877.167,1021.5 875.5,1019.83 873.5,1018.5C 855.5,999.833 837.167,981.5 818.5,963.5C 809.762,942.338 797.762,923.338 782.5,906.5C 798.812,889.521 815.479,872.854 832.5,856.5C 880.5,904.167 928.5,951.833 976.5,999.5C 1024.32,952.18 1071.99,904.68 1119.5,857C 1120.17,856.333 1120.83,856.333 1121.5,857C 1131.03,866.702 1140.7,876.202 1150.5,885.5 Z"/></g>
<g><path style="opacity:1" fill="#b0c1ea" d="M 1208.5,948.5 C 1203.72,933.434 1193.39,926.934 1177.5,929C 1164.68,933.66 1158.34,942.827 1158.5,956.5C 1155.15,954.141 1151.82,951.808 1148.5,949.5C 1157.5,939.833 1166.83,930.5 1176.5,921.5C 1184.75,926.669 1191.09,924.836 1195.5,916C 1197.47,906.43 1193.63,900.93 1184,899.5C 1178.08,899.363 1174.24,902.03 1172.5,907.5C 1164.83,900.5 1157.5,893.167 1150.5,885.5C 1151.55,885.649 1152.55,885.483 1153.5,885C 1157.49,881.003 1162.15,878.003 1167.5,876C 1192.48,868.988 1211.65,876.488 1225,898.5C 1234.05,921.592 1229.05,940.925 1210,956.5C 1209.82,953.635 1209.32,950.969 1208.5,948.5 Z"/></g>
<g><path style="opacity:1" fill="#cad2f9" d="M 372.5,892.5 C 375.5,892.5 378.5,892.5 381.5,892.5C 381.5,901.167 381.5,909.833 381.5,918.5C 390.5,918.5 399.5,918.5 408.5,918.5C 408.5,921.833 408.5,925.167 408.5,928.5C 399.5,928.5 390.5,928.5 381.5,928.5C 381.5,937.167 381.5,945.833 381.5,954.5C 378.5,954.5 375.5,954.5 372.5,954.5C 372.5,945.833 372.5,937.167 372.5,928.5C 363.5,928.5 354.5,928.5 345.5,928.5C 345.5,925.167 345.5,921.833 345.5,918.5C 354.5,918.5 363.5,918.5 372.5,918.5C 372.5,909.833 372.5,901.167 372.5,892.5 Z"/></g>
<g><path style="opacity:1" fill="#e2e6fe" d="M 227.5,895.5 C 236.153,894.987 239.653,898.987 238,907.5C 235.459,912.069 231.625,913.569 226.5,912C 219.671,906.003 220.004,900.503 227.5,895.5 Z"/></g>
<g><path style="opacity:1" fill="#d0dcf8" d="M 1176.5,921.5 C 1177.81,919.852 1179.14,918.186 1180.5,916.5C 1177.81,913.48 1175.14,910.48 1172.5,907.5C 1174.24,902.03 1178.08,899.363 1184,899.5C 1193.63,900.93 1197.47,906.43 1195.5,916C 1191.09,924.836 1184.75,926.669 1176.5,921.5 Z"/></g>
<g><path style="opacity:1" fill="#fefefd" d="M 629.5,904.5 C 673.777,900.088 711.277,913.754 742,945.5C 777.208,987.955 783.875,1034.62 762,1085.5C 733.863,1136.83 690.363,1160.33 631.5,1156C 583.1,1148.06 549.267,1121.56 530,1076.5C 510.276,1014.68 526.109,964.179 577.5,925C 593.451,914.519 610.785,907.686 629.5,904.5 Z"/></g>
<g><path style="opacity:1" fill="#fecf73" d="M 635.5,928.5 C 658.279,926.289 679.612,930.789 699.5,942C 703.619,944.29 707.286,947.124 710.5,950.5C 663.167,998.5 615.5,1046.17 567.5,1093.5C 545.015,1062.98 539.849,1029.65 552,993.5C 568.113,956.531 595.946,934.864 635.5,928.5 Z"/></g>
<g><path style="opacity:1" fill="#d1dcf8" d="M 1208.5,948.5 C 1208.78,951.777 1208.45,954.943 1207.5,958C 1190.78,967.099 1174.45,966.599 1158.5,956.5C 1158.34,942.827 1164.68,933.66 1177.5,929C 1193.39,926.934 1203.72,933.434 1208.5,948.5 Z"/></g>
<g><path style="opacity:1" fill="#e2e6fe" d="M 1621.5,947.5 C 1634.24,945.584 1641.57,950.917 1643.5,963.5C 1639.69,977.573 1631.02,981.74 1617.5,976C 1610.55,968.835 1609.71,961.001 1615,952.5C 1617.33,950.934 1619.49,949.268 1621.5,947.5 Z"/></g>
<g><path style="opacity:1" fill="#cad2f9" d="M 1435.5,949.5 C 1439.17,949.5 1442.83,949.5 1446.5,949.5C 1446.5,959.5 1446.5,969.5 1446.5,979.5C 1456.5,979.5 1466.5,979.5 1476.5,979.5C 1476.5,982.833 1476.5,986.167 1476.5,989.5C 1466.5,989.5 1456.5,989.5 1446.5,989.5C 1446.5,999.833 1446.5,1010.17 1446.5,1020.5C 1442.83,1020.5 1439.17,1020.5 1435.5,1020.5C 1435.5,1010.17 1435.5,999.833 1435.5,989.5C 1425.5,989.5 1415.5,989.5 1405.5,989.5C 1405.5,986.167 1405.5,982.833 1405.5,979.5C 1415.5,979.5 1425.5,979.5 1435.5,979.5C 1435.5,969.5 1435.5,959.5 1435.5,949.5 Z"/></g>
<g><path style="opacity:1" fill="#fecf73" d="M 727.5,967.5 C 738.758,980.385 745.924,995.385 749,1012.5C 754.254,1055.81 739.42,1090.31 704.5,1116C 671.202,1135.67 636.869,1137.67 601.5,1122C 595.663,1118.58 589.996,1114.92 584.5,1111C 632.368,1063.3 680.035,1015.47 727.5,967.5 Z"/></g>
<g><path style="opacity:1" fill="#b2c3ea" d="M 818.5,963.5 C 837.167,981.5 855.5,999.833 873.5,1018.5C 859.167,1018.5 844.833,1018.5 830.5,1018.5C 829.191,999.559 825.191,981.226 818.5,963.5 Z"/></g>
<g><path style="opacity:1" fill="#b0c1ea" d="M 1112.5,985.5 C 1147,986.332 1181.66,986.832 1216.5,987C 1221.25,988.115 1224.41,990.948 1226,995.5C 1226.5,1052.83 1226.67,1110.17 1226.5,1167.5C 1223.56,1166.37 1220.56,1165.2 1217.5,1164C 1203.12,1155.48 1188.46,1147.48 1173.5,1140C 1154.66,1139.17 1136,1139.34 1117.5,1140.5C 1107.83,1131.5 1098.5,1122.17 1089.5,1112.5C 1121.17,1112.5 1152.83,1112.5 1184.5,1112.5C 1184.5,1110.83 1184.5,1109.17 1184.5,1107.5C 1151.33,1107.17 1118.33,1107.5 1085.5,1108.5C 1071.5,1095.17 1057.83,1081.5 1044.5,1067.5C 1090.83,1067.5 1137.17,1067.5 1183.5,1067.5C 1183.5,1066.17 1183.5,1064.83 1183.5,1063.5C 1136,1063.17 1088.66,1063.5 1041.5,1064.5C 1039.24,1063.44 1038.08,1061.77 1038,1059.5C 1050.37,1046.96 1062.87,1034.63 1075.5,1022.5C 1111.66,1023.5 1148,1023.83 1184.5,1023.5C 1184.5,1021.83 1184.5,1020.17 1184.5,1018.5C 1149.5,1018.5 1114.5,1018.5 1079.5,1018.5C 1090.17,1007.17 1101.17,996.167 1112.5,985.5 Z"/></g>
<g><path style="opacity:1" fill="#d0daf6" d="M 830.5,1018.5 C 844.833,1018.5 859.167,1018.5 873.5,1018.5C 875.5,1019.83 877.167,1021.5 878.5,1023.5C 862.833,1023.5 847.167,1023.5 831.5,1023.5C 831.821,1028.69 831.487,1033.69 830.5,1038.5C 830.5,1031.83 830.5,1025.17 830.5,1018.5 Z"/></g>
<g><path style="opacity:1" fill="#d0dbf8" d="M 1079.5,1018.5 C 1114.5,1018.5 1149.5,1018.5 1184.5,1018.5C 1184.5,1020.17 1184.5,1021.83 1184.5,1023.5C 1148,1023.83 1111.66,1023.5 1075.5,1022.5C 1076.5,1020.83 1077.83,1019.5 1079.5,1018.5 Z"/></g>
<g><path style="opacity:1" fill="#b0c2ea" d="M 878.5,1023.5 C 890.798,1035.3 902.965,1047.3 915,1059.5C 915.279,1061.41 914.446,1062.75 912.5,1063.5C 884.5,1063.5 856.5,1063.5 828.5,1063.5C 828.5,1062.5 828.5,1061.5 828.5,1060.5C 829.822,1053.23 830.489,1045.9 830.5,1038.5C 831.487,1033.69 831.821,1028.69 831.5,1023.5C 847.167,1023.5 862.833,1023.5 878.5,1023.5 Z"/></g>
<g><path style="opacity:1" fill="#cad1f8" d="M 1658.5,1049.5 C 1660.17,1049.5 1661.83,1049.5 1663.5,1049.5C 1663.5,1054.5 1663.5,1059.5 1663.5,1064.5C 1668.5,1064.5 1673.5,1064.5 1678.5,1064.5C 1678.5,1066.17 1678.5,1067.83 1678.5,1069.5C 1673.5,1069.5 1668.5,1069.5 1663.5,1069.5C 1663.5,1074.5 1663.5,1079.5 1663.5,1084.5C 1661.83,1084.5 1660.17,1084.5 1658.5,1084.5C 1658.5,1079.5 1658.5,1074.5 1658.5,1069.5C 1653.5,1069.5 1648.5,1069.5 1643.5,1069.5C 1643.5,1067.83 1643.5,1066.17 1643.5,1064.5C 1648.5,1064.5 1653.5,1064.5 1658.5,1064.5C 1658.5,1059.5 1658.5,1054.5 1658.5,1049.5 Z"/></g>
<g><path style="opacity:1" fill="#e2e6fe" d="M 330.5,1061.5 C 346.206,1062.37 352.04,1070.37 348,1085.5C 342.49,1092.89 335.324,1095.06 326.5,1092C 318.599,1086.28 316.432,1078.78 320,1069.5C 322.855,1065.79 326.355,1063.12 330.5,1061.5 Z"/></g>
<g><path style="opacity:1" fill="#d2dcf8" d="M 828.5,1060.5 C 828.5,1061.5 828.5,1062.5 828.5,1063.5C 856.5,1063.5 884.5,1063.5 912.5,1063.5C 911.5,1065.17 910.167,1066.5 908.5,1067.5C 881.5,1067.5 854.5,1067.5 827.5,1067.5C 827.198,1064.94 827.532,1062.61 828.5,1060.5 Z"/></g>
<g><path style="opacity:1" fill="#d1dcf8" d="M 1044.5,1067.5 C 1043.17,1066.83 1042.17,1065.83 1041.5,1064.5C 1088.66,1063.5 1136,1063.17 1183.5,1063.5C 1183.5,1064.83 1183.5,1066.17 1183.5,1067.5C 1137.17,1067.5 1090.83,1067.5 1044.5,1067.5 Z"/></g>
<g><path style="opacity:1" fill="#b0c1e9" d="M 827.5,1067.5 C 854.5,1067.5 881.5,1067.5 908.5,1067.5C 884.833,1091.83 860.833,1115.83 836.5,1139.5C 822.833,1139.5 809.167,1139.5 795.5,1139.5C 810.466,1117.56 821.132,1093.56 827.5,1067.5 Z"/></g>
<g><path style="opacity:1" fill="#cfdbf7" d="M 1089.5,1112.5 C 1087.83,1111.5 1086.5,1110.17 1085.5,1108.5C 1118.33,1107.5 1151.33,1107.17 1184.5,1107.5C 1184.5,1109.17 1184.5,1110.83 1184.5,1112.5C 1152.83,1112.5 1121.17,1112.5 1089.5,1112.5 Z"/></g>
<g><path style="opacity:1" fill="#e2e6fe" d="M 1421.5,1120.5 C 1430.21,1120.04 1433.71,1124.04 1432,1132.5C 1429.46,1137.07 1425.63,1138.57 1420.5,1137C 1413.67,1131 1414,1125.5 1421.5,1120.5 Z"/></g>
<g><path style="opacity:1" fill="#d36f67" d="M 1492.5,1277.5 C 1498.62,1257.9 1502.95,1237.9 1505.5,1217.5C 1507.04,1213.29 1509.04,1209.29 1511.5,1205.5C 1511.33,1205.17 1511.17,1204.83 1511,1204.5C 1509.64,1206.68 1508.14,1208.68 1506.5,1210.5C 1506.5,1200.83 1506.5,1191.17 1506.5,1181.5C 1512.65,1171.44 1521.32,1164.77 1532.5,1161.5C 1537.01,1161.17 1539.84,1163.17 1541,1167.5C 1541.16,1177.89 1539.16,1187.89 1535,1197.5C 1523.14,1225.56 1508.97,1252.23 1492.5,1277.5 Z"/></g>
<g><path style="opacity:1" fill="#eb725f" d="M 1506.5,1181.5 C 1506.5,1191.17 1506.5,1200.83 1506.5,1210.5C 1482.02,1250.11 1457.52,1289.78 1433,1329.5C 1431.97,1312.34 1429.97,1295.34 1427,1278.5C 1427.35,1298.5 1427.69,1318.5 1428,1338.5C 1415,1359.83 1402,1381.17 1389,1402.5C 1383.45,1379.95 1377.11,1357.61 1370,1335.5C 1374.08,1359.59 1378.91,1383.59 1384.5,1407.5C 1382.39,1415.06 1378.72,1421.72 1373.5,1427.5C 1369.54,1416.6 1365.2,1405.93 1360.5,1395.5C 1358.16,1388.82 1355.83,1382.16 1353.5,1375.5C 1353.5,1342.5 1353.5,1309.5 1353.5,1276.5C 1353.5,1276.17 1353.5,1275.83 1353.5,1275.5C 1361.25,1271.79 1367.75,1273.46 1373,1280.5C 1384.04,1297.24 1392.37,1315.24 1398,1334.5C 1401.95,1305.5 1407.61,1276.83 1415,1248.5C 1417.5,1239.84 1420.83,1231.51 1425,1223.5C 1430.44,1215.95 1436.11,1215.62 1442,1222.5C 1446.79,1237.08 1448.79,1252.08 1448,1267.5C 1462.92,1240.64 1479.59,1214.97 1498,1190.5C 1500.39,1187.04 1503.22,1184.04 1506.5,1181.5 Z"/></g>
<g><path style="opacity:1" fill="#b0c1ea" d="M 782.5,1193.5 C 779.538,1196.96 776.371,1200.3 773,1203.5C 772.333,1204.17 772.333,1204.83 773,1205.5C 787.035,1219.37 800.869,1233.37 814.5,1247.5C 812.196,1258.77 806.362,1267.77 797,1274.5C 796.809,1272.29 796.309,1270.29 795.5,1268.5C 791.352,1251.91 780.685,1245.07 763.5,1248C 751.147,1252.54 745.147,1261.38 745.5,1274.5C 741.263,1271.77 737.429,1268.44 734,1264.5C 724.75,1250 723.083,1234.67 729,1218.5C 740.701,1197.07 758.534,1188.73 782.5,1193.5 Z"/></g>
<g><path style="opacity:1" fill="#6f7fdd" d="M 600.5,1207.5 C 618.856,1212.2 637.523,1214.2 656.5,1213.5C 656.833,1313.67 656.499,1413.67 655.5,1513.5C 648.539,1495.6 641.206,1477.93 633.5,1460.5C 628.16,1446.49 622.827,1432.49 617.5,1418.5C 611.833,1418.5 606.167,1418.5 600.5,1418.5C 600.817,1415.43 600.484,1412.43 599.5,1409.5C 598.583,1408.87 597.583,1408.54 596.5,1408.5C 597.287,1406.9 598.62,1406.23 600.5,1406.5C 600.704,1396.14 600.371,1385.81 599.5,1375.5C 600.499,1319.67 600.832,1263.67 600.5,1207.5 Z"/></g>
<g><path style="opacity:1" fill="#dfa04c" d="M 1241.5,1212.5 C 1256.5,1212.33 1271.5,1212.5 1286.5,1213C 1289.42,1219.96 1292.42,1226.79 1295.5,1233.5C 1295.33,1234.49 1295.66,1235.16 1296.5,1235.5C 1303.03,1251.74 1309.36,1268.08 1315.5,1284.5C 1305.83,1284.5 1296.17,1284.5 1286.5,1284.5C 1273,1259.49 1258,1235.49 1241.5,1212.5 Z"/></g>
<g><path style="opacity:1" fill="#8292e0" d="M 656.5,1213.5 C 656.833,1213.5 657.167,1213.5 657.5,1213.5C 657.833,1314.67 657.499,1415.67 656.5,1516.5C 655.89,1515.61 655.557,1514.61 655.5,1513.5C 656.499,1413.67 656.833,1313.67 656.5,1213.5 Z"/></g>
<g><path style="opacity:1" fill="#f9ab44" d="M 1241.5,1212.5 C 1258,1235.49 1273,1259.49 1286.5,1284.5C 1256.81,1285.16 1227.48,1284.49 1198.5,1282.5C 1207.56,1259.48 1216.73,1236.48 1226,1213.5C 1231.07,1212.53 1236.24,1212.2 1241.5,1212.5 Z"/></g>
<g><path style="opacity:1" fill="#d1dcf8" d="M 767.5,1217.5 C 780.02,1217.51 784.853,1223.51 782,1235.5C 778.235,1241.76 772.735,1243.93 765.5,1242C 759.24,1238.24 757.073,1232.74 759,1225.5C 761.098,1221.9 763.932,1219.23 767.5,1217.5 Z"/></g>
<g><path style="opacity:1" fill="#eb725f" d="M 1505.5,1217.5 C 1502.95,1237.9 1498.62,1257.9 1492.5,1277.5C 1490.22,1281.47 1487.89,1285.47 1485.5,1289.5C 1486.23,1290.09 1487.23,1290.09 1488.5,1289.5C 1484.44,1298 1480.78,1306.67 1477.5,1315.5C 1464.11,1320.79 1450.77,1325.96 1437.5,1331C 1460.32,1293.19 1482.99,1255.35 1505.5,1217.5 Z"/></g>
<g><path style="opacity:1" fill="#6a7dda" d="M 599.5,1375.5 C 600.371,1385.81 600.704,1396.14 600.5,1406.5C 598.62,1406.23 597.287,1406.9 596.5,1408.5C 593.209,1411.82 589.876,1415.16 586.5,1418.5C 584.585,1418.22 582.919,1418.55 581.5,1419.5C 581.443,1420.61 581.11,1421.61 580.5,1422.5C 568.506,1429.6 555.839,1434.94 542.5,1438.5C 536.218,1439.58 529.884,1440.24 523.5,1440.5C 511.777,1441.57 500.443,1440.07 489.5,1436C 513.774,1410.34 543.774,1398.34 579.5,1400C 562.069,1390.87 545.569,1380.37 530,1368.5C 506.311,1384.58 480.144,1390.74 451.5,1387C 440.05,1385.52 429.383,1381.85 419.5,1376C 432.158,1365.11 446.824,1358.44 463.5,1356C 481.812,1353.39 499.812,1354.39 517.5,1359C 503.005,1347.32 489.172,1334.82 476,1321.5C 439.709,1337.91 404.542,1335.75 370.5,1315C 369.167,1313.67 367.833,1312.33 366.5,1311C 370.674,1308.41 375.007,1306.08 379.5,1304C 400.625,1297.53 421.958,1296.86 443.5,1302C 450.61,1304.37 457.61,1306.7 464.5,1309C 453.615,1296.29 442.948,1283.45 432.5,1270.5C 396.502,1281.21 363.502,1275.38 333.5,1253C 330.5,1250 327.5,1247 324.5,1244C 330.44,1240.93 336.774,1238.93 343.5,1238C 374.327,1235.78 401.994,1243.28 426.5,1260.5C 422.108,1254.77 418.108,1248.77 414.5,1242.5C 380.889,1216.92 366.056,1182.92 370,1140.5C 370.249,1139.38 370.749,1138.38 371.5,1137.5C 400.463,1159.09 415.463,1188.09 416.5,1224.5C 416.443,1228.04 416.109,1231.54 415.5,1235C 418.033,1240.57 421.2,1245.73 425,1250.5C 418.288,1223.29 420.955,1196.96 433,1171.5C 435.305,1167.7 437.805,1164.03 440.5,1160.5C 441.274,1159.29 442.107,1159.29 443,1160.5C 459.93,1194.61 459.597,1228.61 442,1262.5C 440.623,1264.75 439.123,1266.92 437.5,1269C 447.163,1282.48 457.663,1295.31 469,1307.5C 463.957,1295.36 460.29,1282.69 458,1269.5C 455.262,1248.83 458.428,1229.16 467.5,1210.5C 468.002,1209.48 468.668,1209.31 469.5,1210C 482.143,1225.92 489.31,1244.08 491,1264.5C 491.744,1274.2 491.411,1283.87 490,1293.5C 487.623,1303.02 484.957,1312.35 482,1321.5C 493.867,1333.04 506.033,1344.2 518.5,1355C 519.332,1355.69 519.998,1355.52 520.5,1354.5C 499.476,1324.94 494.309,1292.94 505,1258.5C 534.845,1288.55 544.678,1324.21 534.5,1365.5C 534.833,1366.17 535.167,1366.83 535.5,1367.5C 551.778,1379.64 569.112,1389.81 587.5,1398C 560.975,1373.78 548.475,1343.62 550,1307.5C 550.388,1306.57 551.055,1305.91 552,1305.5C 577.499,1322.13 593.332,1345.47 599.5,1375.5 Z"/></g>
<g><path style="opacity:1" fill="#114ca6" d="M 376.5,1150.5 C 389.391,1176.01 400.224,1202.34 409,1229.5C 396.701,1203.77 385.868,1177.44 376.5,1150.5 Z"/></g>
<g><path style="opacity:1" fill="#164ea9" d="M 440.5,1170.5 C 440.883,1200.08 439.383,1229.75 436,1259.5C 436.155,1229.76 437.655,1200.09 440.5,1170.5 Z"/></g>
<g><path style="opacity:1" fill="#d1dcf8" d="M 795.5,1268.5 C 795.98,1271.69 795.314,1274.52 793.5,1277C 779.824,1283.56 765.824,1284.23 751.5,1279C 749.253,1277.72 747.253,1276.22 745.5,1274.5C 745.147,1261.38 751.147,1252.54 763.5,1248C 780.685,1245.07 791.352,1251.91 795.5,1268.5 Z"/></g>
<g><path style="opacity:1" fill="#194faa" d="M 334.5,1246.5 C 364.379,1251.21 394.046,1258.05 423.5,1267C 393.391,1262.22 363.724,1255.39 334.5,1246.5 Z"/></g>
<g><path style="opacity:1" fill="#134ca7" d="M 469.5,1218.5 C 472.486,1234.58 474.653,1250.91 476,1267.5C 477.553,1280.13 478.22,1292.8 478,1305.5C 473.635,1276.65 470.801,1247.65 469.5,1218.5 Z"/></g>
<g><path style="opacity:1" fill="#cad2f8" d="M 1624.5,1256.5 C 1627.5,1256.5 1630.5,1256.5 1633.5,1256.5C 1633.5,1265.5 1633.5,1274.5 1633.5,1283.5C 1642.17,1283.5 1650.83,1283.5 1659.5,1283.5C 1659.5,1286.5 1659.5,1289.5 1659.5,1292.5C 1650.83,1292.5 1642.17,1292.5 1633.5,1292.5C 1633.5,1301.5 1633.5,1310.5 1633.5,1319.5C 1630.5,1319.5 1627.5,1319.5 1624.5,1319.5C 1624.5,1310.5 1624.5,1301.5 1624.5,1292.5C 1615.5,1292.5 1606.5,1292.5 1597.5,1292.5C 1597.5,1289.5 1597.5,1286.5 1597.5,1283.5C 1606.5,1283.5 1615.5,1283.5 1624.5,1283.5C 1624.5,1274.5 1624.5,1265.5 1624.5,1256.5 Z"/></g>
<g><path style="opacity:1" fill="#d36f67" d="M 1451.5,1363.5 C 1460.28,1348.94 1468.28,1333.94 1475.5,1318.5C 1478.97,1316.93 1482.3,1315.1 1485.5,1313C 1482.82,1313.49 1480.15,1314.32 1477.5,1315.5C 1480.78,1306.67 1484.44,1298 1488.5,1289.5C 1500,1281.77 1512.67,1276.77 1526.5,1274.5C 1535.05,1274.22 1538.22,1278.22 1536,1286.5C 1533.5,1291.51 1530.5,1296.17 1527,1300.5C 1503.69,1323.99 1478.53,1344.99 1451.5,1363.5 Z"/></g>
<g><path style="opacity:1" fill="#ad799e" d="M 1352.5,1276.5 C 1352.83,1276.5 1353.17,1276.5 1353.5,1276.5C 1353.5,1309.5 1353.5,1342.5 1353.5,1375.5C 1352.5,1375.17 1351.83,1374.5 1351.5,1373.5C 1352.5,1341.34 1352.83,1309 1352.5,1276.5 Z"/></g>
<g><path style="opacity:1" fill="#184fa9" d="M 507.5,1270.5 C 517.202,1299.31 525.035,1328.64 531,1358.5C 521.618,1329.64 513.784,1300.31 507.5,1270.5 Z"/></g>
<g><path style="opacity:1" fill="#fece73" d="M 1198.5,1282.5 C 1227.48,1284.49 1256.81,1285.16 1286.5,1284.5C 1305.41,1320.23 1320.41,1357.56 1331.5,1396.5C 1288.83,1396.5 1246.17,1396.5 1203.5,1396.5C 1214.32,1367.52 1225.15,1338.52 1236,1309.5C 1237.04,1303.03 1234.2,1299.69 1227.5,1299.5C 1223.82,1299.67 1220.99,1301.33 1219,1304.5C 1207,1335.01 1195.5,1365.68 1184.5,1396.5C 1184.17,1396.5 1183.83,1396.5 1183.5,1396.5C 1173.17,1396.5 1162.83,1396.5 1152.5,1396.5C 1153.17,1393.83 1153.83,1391.17 1154.5,1388.5C 1155.67,1387.49 1156.34,1386.15 1156.5,1384.5C 1162.03,1371.24 1167.36,1357.91 1172.5,1344.5C 1173.93,1343.22 1174.6,1341.55 1174.5,1339.5C 1179.35,1329.13 1183.68,1318.46 1187.5,1307.5C 1190.97,1299.08 1194.64,1290.75 1198.5,1282.5 Z"/></g>
<g><path style="opacity:1" fill="#e5c178" d="M 1286.5,1284.5 C 1296.17,1284.5 1305.83,1284.5 1315.5,1284.5C 1327.87,1313.94 1339.87,1343.61 1351.5,1373.5C 1351.83,1374.5 1352.5,1375.17 1353.5,1375.5C 1355.83,1382.16 1358.16,1388.82 1360.5,1395.5C 1351.35,1396.49 1342.01,1396.83 1332.5,1396.5C 1332.17,1396.5 1331.83,1396.5 1331.5,1396.5C 1320.41,1357.56 1305.41,1320.23 1286.5,1284.5 Z"/></g>
<g><path style="opacity:1" fill="#fedc9d" d="M 1203.5,1396.5 C 1197.17,1396.5 1190.83,1396.5 1184.5,1396.5C 1195.5,1365.68 1207,1335.01 1219,1304.5C 1220.99,1301.33 1223.82,1299.67 1227.5,1299.5C 1234.2,1299.69 1237.04,1303.03 1236,1309.5C 1225.15,1338.52 1214.32,1367.52 1203.5,1396.5 Z"/></g>
<g><path style="opacity:1" fill="#cad1f8" d="M 264.5,1308.5 C 266.167,1308.5 267.833,1308.5 269.5,1308.5C 269.5,1313.5 269.5,1318.5 269.5,1323.5C 274.5,1323.5 279.5,1323.5 284.5,1323.5C 284.5,1325.17 284.5,1326.83 284.5,1328.5C 279.5,1328.5 274.5,1328.5 269.5,1328.5C 269.5,1333.5 269.5,1338.5 269.5,1343.5C 267.833,1343.5 266.167,1343.5 264.5,1343.5C 264.5,1338.5 264.5,1333.5 264.5,1328.5C 259.5,1328.5 254.5,1328.5 249.5,1328.5C 249.5,1326.83 249.5,1325.17 249.5,1323.5C 254.5,1323.5 259.5,1323.5 264.5,1323.5C 264.5,1318.5 264.5,1313.5 264.5,1308.5 Z"/></g>
<g><path style="opacity:1" fill="#b0c1ea" d="M 1187.5,1307.5 C 1183.68,1318.46 1179.35,1329.13 1174.5,1339.5C 1038.5,1339.5 902.5,1339.5 766.5,1339.5C 766.5,1341.17 766.5,1342.83 766.5,1344.5C 901.833,1344.5 1037.17,1344.5 1172.5,1344.5C 1167.36,1357.91 1162.03,1371.24 1156.5,1384.5C 1026.83,1384.5 897.167,1384.5 767.5,1384.5C 767.5,1385.83 767.5,1387.17 767.5,1388.5C 896.5,1388.5 1025.5,1388.5 1154.5,1388.5C 1153.83,1391.17 1153.17,1393.83 1152.5,1396.5C 1143.5,1417.83 1134.5,1439.17 1125.5,1460.5C 1009.5,1460.33 893.5,1460.5 777.5,1461C 759.865,1470.49 742.198,1479.99 724.5,1489.5C 724.167,1461.17 723.833,1432.83 723.5,1404.5C 723.349,1374.79 723.849,1345.12 725,1315.5C 726.907,1311.96 729.74,1309.46 733.5,1308C 884.833,1307.5 1036.17,1307.33 1187.5,1307.5 Z"/></g>
<g><path style="opacity:1" fill="#0e4ba5" d="M 376.5,1312.5 C 404.117,1312.28 431.783,1314.11 459.5,1318C 431.756,1317.53 404.09,1315.7 376.5,1312.5 Z"/></g>
<g><path style="opacity:1" fill="#ea725e" d="M 1475.5,1318.5 C 1468.28,1333.94 1460.28,1348.94 1451.5,1363.5C 1451.5,1364.17 1451.17,1364.5 1450.5,1364.5C 1442.76,1375.64 1434.76,1386.64 1426.5,1397.5C 1415.49,1399.89 1404.49,1402.06 1393.5,1404C 1406.71,1383.08 1419.54,1361.92 1432,1340.5C 1446.42,1333.04 1460.92,1325.71 1475.5,1318.5 Z"/></g>
<g><path style="opacity:1" fill="#114ca6" d="M 557.5,1318.5 C 571.903,1343.64 584.403,1369.64 595,1396.5C 581.12,1371.08 568.62,1345.08 557.5,1318.5 Z"/></g>
<g><path style="opacity:1" fill="#d0dbf8" d="M 1174.5,1339.5 C 1174.6,1341.55 1173.93,1343.22 1172.5,1344.5C 1037.17,1344.5 901.833,1344.5 766.5,1344.5C 766.5,1342.83 766.5,1341.17 766.5,1339.5C 902.5,1339.5 1038.5,1339.5 1174.5,1339.5 Z"/></g>
<g><path style="opacity:1" fill="#f7a745" d="M 1505.5,1217.5 C 1482.99,1255.35 1460.32,1293.19 1437.5,1331C 1450.77,1325.96 1464.11,1320.79 1477.5,1315.5C 1480.15,1314.32 1482.82,1313.49 1485.5,1313C 1482.3,1315.1 1478.97,1316.93 1475.5,1318.5C 1460.92,1325.71 1446.42,1333.04 1432,1340.5C 1419.54,1361.92 1406.71,1383.08 1393.5,1404C 1404.49,1402.06 1415.49,1399.89 1426.5,1397.5C 1437.77,1394.75 1449.1,1392.58 1460.5,1391C 1447.54,1394.99 1434.54,1398.82 1421.5,1402.5C 1410.94,1405.63 1400.27,1408.46 1389.5,1411C 1385.03,1418.11 1380.7,1425.28 1376.5,1432.5C 1375.26,1431.04 1374.26,1429.37 1373.5,1427.5C 1378.72,1421.72 1382.39,1415.06 1384.5,1407.5C 1378.91,1383.59 1374.08,1359.59 1370,1335.5C 1377.11,1357.61 1383.45,1379.95 1389,1402.5C 1402,1381.17 1415,1359.83 1428,1338.5C 1427.69,1318.5 1427.35,1298.5 1427,1278.5C 1429.97,1295.34 1431.97,1312.34 1433,1329.5C 1457.52,1289.78 1482.02,1250.11 1506.5,1210.5C 1508.14,1208.68 1509.64,1206.68 1511,1204.5C 1511.17,1204.83 1511.33,1205.17 1511.5,1205.5C 1509.04,1209.29 1507.04,1213.29 1505.5,1217.5 Z"/></g>
<g><path style="opacity:1" fill="#d36e66" d="M 1428.5,1431.5 C 1427.53,1431.99 1426.53,1432.49 1425.5,1433C 1430.15,1433.5 1434.82,1433.67 1439.5,1433.5C 1459.71,1432.44 1479.04,1435.94 1497.5,1444C 1503.18,1447.63 1504.68,1452.47 1502,1458.5C 1495.1,1465.2 1486.94,1469.7 1477.5,1472C 1451.87,1479.64 1425.87,1485.47 1399.5,1489.5C 1396.28,1482.71 1393.28,1475.71 1390.5,1468.5C 1390.83,1468.17 1391.17,1467.83 1391.5,1467.5C 1415.45,1462.53 1439.45,1457.7 1463.5,1453C 1438.15,1455.74 1412.81,1458.91 1387.5,1462.5C 1385.17,1455.83 1382.83,1449.17 1380.5,1442.5C 1395.49,1430.51 1409.16,1417.17 1421.5,1402.5C 1434.54,1398.82 1447.54,1394.99 1460.5,1391C 1449.1,1392.58 1437.77,1394.75 1426.5,1397.5C 1434.76,1386.64 1442.76,1375.64 1450.5,1364.5C 1450.56,1365.04 1450.89,1365.38 1451.5,1365.5C 1468.97,1361.81 1486.64,1360.65 1504.5,1362C 1520.85,1363.21 1525.35,1371.04 1518,1385.5C 1511.84,1392.65 1504.68,1398.48 1496.5,1403C 1474.86,1414.94 1452.19,1424.44 1428.5,1431.5 Z"/></g>
<g><path style="opacity:1" fill="#114ba6" d="M 495.5,1367.5 C 502.841,1367.33 510.174,1367.5 517.5,1368C 490.609,1371.69 463.609,1373.69 436.5,1374C 456.306,1371.73 475.973,1369.57 495.5,1367.5 Z"/></g>
<g><path style="opacity:1" fill="#d2dcf8" d="M 1156.5,1384.5 C 1156.34,1386.15 1155.67,1387.49 1154.5,1388.5C 1025.5,1388.5 896.5,1388.5 767.5,1388.5C 767.5,1387.17 767.5,1385.83 767.5,1384.5C 897.167,1384.5 1026.83,1384.5 1156.5,1384.5 Z"/></g>
<g><path style="opacity:1" fill="#f9ab44" d="M 1152.5,1396.5 C 1162.83,1396.5 1173.17,1396.5 1183.5,1396.5C 1169.56,1433.38 1155.89,1470.38 1142.5,1507.5C 1142.17,1507.5 1141.83,1507.5 1141.5,1507.5C 1129.99,1507.83 1118.65,1507.49 1107.5,1506.5C 1113.69,1491.25 1119.69,1475.92 1125.5,1460.5C 1134.5,1439.17 1143.5,1417.83 1152.5,1396.5 Z"/></g>
<g><path style="opacity:1" fill="#fac37b" d="M 1183.5,1396.5 C 1183.83,1396.5 1184.17,1396.5 1184.5,1396.5C 1190.83,1396.5 1197.17,1396.5 1203.5,1396.5C 1189.31,1433.08 1175.31,1469.75 1161.5,1506.5C 1161.67,1507.49 1161.34,1508.16 1160.5,1508.5C 1154.69,1507.51 1148.69,1507.18 1142.5,1507.5C 1155.89,1470.38 1169.56,1433.38 1183.5,1396.5 Z"/></g>
<g><path style="opacity:1" fill="#f9ab44" d="M 1203.5,1396.5 C 1246.17,1396.5 1288.83,1396.5 1331.5,1396.5C 1331.83,1396.5 1332.17,1396.5 1332.5,1396.5C 1342.94,1432.48 1349.94,1469.15 1353.5,1506.5C 1289.5,1506.5 1225.5,1506.5 1161.5,1506.5C 1175.31,1469.75 1189.31,1433.08 1203.5,1396.5 Z"/></g>
<g><path style="opacity:1" fill="#dfa04c" d="M 1360.5,1395.5 C 1365.2,1405.93 1369.54,1416.6 1373.5,1427.5C 1374.26,1429.37 1375.26,1431.04 1376.5,1432.5C 1377.26,1436.14 1378.6,1439.47 1380.5,1442.5C 1382.83,1449.17 1385.17,1455.83 1387.5,1462.5C 1412.81,1458.91 1438.15,1455.74 1463.5,1453C 1439.45,1457.7 1415.45,1462.53 1391.5,1467.5C 1391.17,1467.83 1390.83,1468.17 1390.5,1468.5C 1393.28,1475.71 1396.28,1482.71 1399.5,1489.5C 1400.97,1494.56 1402.63,1499.56 1404.5,1504.5C 1387.87,1506.49 1370.87,1507.15 1353.5,1506.5C 1349.94,1469.15 1342.94,1432.48 1332.5,1396.5C 1342.01,1396.83 1351.35,1396.49 1360.5,1395.5 Z"/></g>
<g><path style="opacity:1" fill="#eb725e" d="M 1421.5,1402.5 C 1409.16,1417.17 1395.49,1430.51 1380.5,1442.5C 1378.6,1439.47 1377.26,1436.14 1376.5,1432.5C 1380.7,1425.28 1385.03,1418.11 1389.5,1411C 1400.27,1408.46 1410.94,1405.63 1421.5,1402.5 Z"/></g>
<g><path style="opacity:1" fill="#fafbfd" d="M 596.5,1408.5 C 597.583,1408.54 598.583,1408.87 599.5,1409.5C 600.484,1412.43 600.817,1415.43 600.5,1418.5C 595.833,1418.5 591.167,1418.5 586.5,1418.5C 589.876,1415.16 593.209,1411.82 596.5,1408.5 Z"/></g>
<g><path style="opacity:1" fill="#174ea9" d="M 582.5,1408.5 C 584.199,1408.34 585.866,1408.51 587.5,1409C 559.626,1418.7 531.293,1426.37 502.5,1432C 529.092,1423.41 555.759,1415.57 582.5,1408.5 Z"/></g>
<g><path style="opacity:1" fill="#dfa14e" d="M 581.5,1419.5 C 582.919,1418.55 584.585,1418.22 586.5,1418.5C 591.167,1418.5 595.833,1418.5 600.5,1418.5C 606.167,1418.5 611.833,1418.5 617.5,1418.5C 622.827,1432.49 628.16,1446.49 633.5,1460.5C 628.36,1461.49 623.026,1461.82 617.5,1461.5C 617.167,1461.5 616.833,1461.5 616.5,1461.5C 609.444,1447.06 601.111,1433.39 591.5,1420.5C 588.232,1419.51 584.898,1419.18 581.5,1419.5 Z"/></g>
<g><path style="opacity:1" fill="#f9ab44" d="M 581.5,1419.5 C 584.898,1419.18 588.232,1419.51 591.5,1420.5C 601.111,1433.39 609.444,1447.06 616.5,1461.5C 599.325,1461.83 582.325,1461.5 565.5,1460.5C 566.167,1458.5 566.833,1456.5 567.5,1454.5C 571.832,1443.84 576.165,1433.17 580.5,1422.5C 581.11,1421.61 581.443,1420.61 581.5,1419.5 Z"/></g>
<g><path style="opacity:1" fill="#fcfafb" d="M 580.5,1422.5 C 576.165,1433.17 571.832,1443.84 567.5,1454.5C 565.833,1455.83 564.167,1457.17 562.5,1458.5C 557.5,1450.17 550.833,1443.5 542.5,1438.5C 555.839,1434.94 568.506,1429.6 580.5,1422.5 Z"/></g>
<g><path style="opacity:1" fill="#d0dbf8" d="M 766.5,1428.5 C 865.5,1428.5 964.5,1428.5 1063.5,1428.5C 1063.5,1430.17 1063.5,1431.83 1063.5,1433.5C 964.5,1433.5 865.5,1433.5 766.5,1433.5C 766.5,1431.83 766.5,1430.17 766.5,1428.5 Z"/></g>
<g><path style="opacity:1" fill="#d36e66" d="M 528.5,1506.5 C 513.074,1499.58 497.408,1493.25 481.5,1487.5C 479.53,1485.35 477.697,1483.02 476,1480.5C 476.15,1482.51 476.65,1484.51 477.5,1486.5C 468.798,1482.24 460.131,1480.24 451.5,1480.5C 445.764,1472.24 440.597,1463.58 436,1454.5C 432.569,1448.22 431.235,1441.55 432,1434.5C 434.513,1430.79 438.013,1429.62 442.5,1431C 451.597,1434.72 459.93,1439.72 467.5,1446C 489.005,1465.01 509.338,1485.17 528.5,1506.5 Z"/></g>
<g><path style="opacity:1" fill="#e8b7b2" d="M 1428.5,1431.5 C 1432.17,1432.17 1435.83,1432.83 1439.5,1433.5C 1434.82,1433.67 1430.15,1433.5 1425.5,1433C 1426.53,1432.49 1427.53,1431.99 1428.5,1431.5 Z"/></g>
<g><path style="opacity:1" fill="#d36f66" d="M 439.5,1475.5 C 418.723,1471.19 397.723,1468.86 376.5,1468.5C 370.417,1466.88 364.584,1464.54 359,1461.5C 358.5,1461.67 358,1461.83 357.5,1462C 361.722,1463.94 365.722,1466.11 369.5,1468.5C 362.485,1468.73 355.485,1469.23 348.5,1470C 345.809,1470.16 343.476,1470.99 341.5,1472.5C 332.333,1466.84 324.833,1459.51 319,1450.5C 317.704,1440.8 322.037,1436.8 332,1438.5C 343.745,1439.31 355.245,1441.48 366.5,1445C 391.642,1453.58 415.975,1463.75 439.5,1475.5 Z"/></g>
<g><path style="opacity:1" fill="#d36f67" d="M 542.5,1438.5 C 550.833,1443.5 557.5,1450.17 562.5,1458.5C 559.809,1461.2 557.475,1464.2 555.5,1467.5C 557.304,1468.77 559.304,1469.43 561.5,1469.5C 555.148,1484.9 548.815,1500.24 542.5,1515.5C 538.334,1512.58 534.001,1509.92 529.5,1507.5C 530.043,1507.44 530.376,1507.11 530.5,1506.5C 524.303,1487.98 521.136,1468.98 521,1449.5C 521.396,1446.34 522.229,1443.34 523.5,1440.5C 529.884,1440.24 536.218,1439.58 542.5,1438.5 Z"/></g>
<g><path style="opacity:1" fill="#6a79d2" d="M 567.5,1454.5 C 566.833,1456.5 566.167,1458.5 565.5,1460.5C 563.796,1463.26 562.463,1466.26 561.5,1469.5C 559.304,1469.43 557.304,1468.77 555.5,1467.5C 557.475,1464.2 559.809,1461.2 562.5,1458.5C 564.167,1457.17 565.833,1455.83 567.5,1454.5 Z"/></g>
<g><path style="opacity:1" fill="#fece73" d="M 565.5,1460.5 C 582.325,1461.5 599.325,1461.83 616.5,1461.5C 616.833,1461.5 617.167,1461.5 617.5,1461.5C 628.497,1482.14 637.164,1503.81 643.5,1526.5C 618.5,1526.5 593.5,1526.5 568.5,1526.5C 574.653,1510.19 580.82,1493.85 587,1477.5C 588.197,1473.23 586.697,1470.56 582.5,1469.5C 580.813,1469.76 579.313,1470.43 578,1471.5C 570.858,1489.76 564.025,1508.1 557.5,1526.5C 557.167,1526.5 556.833,1526.5 556.5,1526.5C 550.5,1526.5 544.5,1526.5 538.5,1526.5C 539.833,1522.83 541.167,1519.17 542.5,1515.5C 548.815,1500.24 555.148,1484.9 561.5,1469.5C 562.463,1466.26 563.796,1463.26 565.5,1460.5 Z"/></g>
<g><path style="opacity:1" fill="#eb725f" d="M 376.5,1468.5 C 397.723,1468.86 418.723,1471.19 439.5,1475.5C 443.5,1477.17 447.5,1478.83 451.5,1480.5C 460.131,1480.24 468.798,1482.24 477.5,1486.5C 484.125,1498.41 490.791,1510.41 497.5,1522.5C 497.167,1522.83 496.833,1523.17 496.5,1523.5C 456.41,1505.12 416.41,1486.78 376.5,1468.5 Z"/></g>
<g><path style="opacity:1" fill="#eb735f" d="M 369.5,1468.5 C 411.599,1488.05 453.599,1507.88 495.5,1528C 480.087,1531.28 464.754,1534.95 449.5,1539C 467.264,1537.93 484.931,1535.76 502.5,1532.5C 511.824,1535.45 520.824,1539.28 529.5,1544C 530.517,1545.05 530.684,1546.22 530,1547.5C 523.414,1562.83 517.581,1577.5 512.5,1591.5C 508.323,1600.68 504.323,1610.01 500.5,1619.5C 488.131,1620.89 475.798,1620.72 463.5,1619C 459.462,1618.1 455.795,1616.43 452.5,1614C 447.513,1608.27 447.346,1602.43 452,1596.5C 459.691,1588.14 468.524,1581.3 478.5,1576C 487.198,1571.65 495.864,1567.32 504.5,1563C 469.062,1562.62 434.062,1558.62 399.5,1551C 394.468,1549.4 389.968,1546.9 386,1543.5C 383.494,1538.36 384.661,1534.19 389.5,1531C 394.624,1528.44 399.957,1526.44 405.5,1525C 414.786,1523.34 424.119,1522.01 433.5,1521C 401.478,1507.16 370.812,1490.99 341.5,1472.5C 343.476,1470.99 345.809,1470.16 348.5,1470C 355.485,1469.23 362.485,1468.73 369.5,1468.5 Z"/></g>
<g><path style="opacity:1" fill="#fedc9c" d="M 568.5,1526.5 C 564.833,1526.5 561.167,1526.5 557.5,1526.5C 564.025,1508.1 570.858,1489.76 578,1471.5C 579.313,1470.43 580.813,1469.76 582.5,1469.5C 586.697,1470.56 588.197,1473.23 587,1477.5C 580.82,1493.85 574.653,1510.19 568.5,1526.5 Z"/></g>
<g><path style="opacity:1" fill="#e4c079" d="M 633.5,1460.5 C 641.206,1477.93 648.539,1495.6 655.5,1513.5C 655.557,1514.61 655.89,1515.61 656.5,1516.5C 658.028,1519.75 659.361,1523.08 660.5,1526.5C 654.833,1526.5 649.167,1526.5 643.5,1526.5C 637.164,1503.81 628.497,1482.14 617.5,1461.5C 623.026,1461.82 628.36,1461.49 633.5,1460.5 Z"/></g>
<g><path style="opacity:1" fill="#eb725e" d="M 481.5,1487.5 C 497.408,1493.25 513.074,1499.58 528.5,1506.5C 529.167,1506.5 529.5,1506.83 529.5,1507.5C 534.001,1509.92 538.334,1512.58 542.5,1515.5C 541.167,1519.17 539.833,1522.83 538.5,1526.5C 536.844,1531.14 534.678,1535.48 532,1539.5C 523.441,1535.8 514.941,1531.97 506.5,1528C 498.27,1514.36 489.937,1500.86 481.5,1487.5 Z"/></g>
<g><path style="opacity:1" fill="#fdce72" d="M 1107.5,1506.5 C 1118.65,1507.49 1129.99,1507.83 1141.5,1507.5C 1130.91,1535.44 1120.41,1563.44 1110,1591.5C 1108.89,1602.05 1113.39,1605.55 1123.5,1602C 1124.33,1601.17 1125.17,1600.33 1126,1599.5C 1137.41,1569.1 1148.91,1538.77 1160.5,1508.5C 1161.34,1508.16 1161.67,1507.49 1161.5,1506.5C 1225.5,1506.5 1289.5,1506.5 1353.5,1506.5C 1357.44,1543.78 1357.44,1581.11 1353.5,1618.5C 1353.5,1619.17 1353.17,1619.5 1352.5,1619.5C 1255.5,1619.5 1158.5,1619.5 1061.5,1619.5C 1070.3,1597.09 1079.3,1574.76 1088.5,1552.5C 1094.87,1537.1 1101.2,1521.77 1107.5,1506.5 Z"/></g>
<g><path style="opacity:1" fill="#fedc9d" d="M 1141.5,1507.5 C 1141.83,1507.5 1142.17,1507.5 1142.5,1507.5C 1148.69,1507.18 1154.69,1507.51 1160.5,1508.5C 1148.91,1538.77 1137.41,1569.1 1126,1599.5C 1125.17,1600.33 1124.33,1601.17 1123.5,1602C 1113.39,1605.55 1108.89,1602.05 1110,1591.5C 1120.41,1563.44 1130.91,1535.44 1141.5,1507.5 Z"/></g>
<g><path style="opacity:1" fill="#e5c178" d="M 1404.5,1504.5 C 1405.87,1506.25 1406.87,1508.25 1407.5,1510.5C 1409.85,1515.91 1412.18,1521.24 1414.5,1526.5C 1415.99,1532.12 1417.99,1537.45 1420.5,1542.5C 1422.17,1546.5 1423.83,1550.5 1425.5,1554.5C 1426.11,1555.39 1426.44,1556.39 1426.5,1557.5C 1428.17,1561.5 1429.83,1565.5 1431.5,1569.5C 1432.26,1572.02 1433.26,1574.35 1434.5,1576.5C 1434.56,1577.61 1434.89,1578.61 1435.5,1579.5C 1436.59,1582.68 1437.93,1585.68 1439.5,1588.5C 1442.27,1596.82 1445.6,1604.82 1449.5,1612.5C 1449.4,1614.55 1450.07,1616.22 1451.5,1617.5C 1451.5,1618.17 1451.5,1618.83 1451.5,1619.5C 1418.91,1618.51 1386.24,1618.17 1353.5,1618.5C 1357.44,1581.11 1357.44,1543.78 1353.5,1506.5C 1370.87,1507.15 1387.87,1506.49 1404.5,1504.5 Z"/></g>
<g><path style="opacity:1" fill="#6d7fd9" d="M 1414.5,1526.5 C 1412.18,1521.24 1409.85,1515.91 1407.5,1510.5C 1411.15,1509.84 1414.82,1509.17 1418.5,1508.5C 1419.5,1508.83 1420.5,1509.17 1421.5,1509.5C 1419.44,1515.29 1417.1,1520.96 1414.5,1526.5 Z"/></g>
<g><path style="opacity:1" fill="#fac37a" d="M 556.5,1526.5 C 556.833,1526.5 557.167,1526.5 557.5,1526.5C 561.167,1526.5 564.833,1526.5 568.5,1526.5C 559.947,1547.61 551.947,1568.94 544.5,1590.5C 544.167,1590.5 543.833,1590.5 543.5,1590.5C 540.167,1590.5 536.833,1590.5 533.5,1590.5C 540.773,1569.01 548.439,1547.68 556.5,1526.5 Z"/></g>
<g><path style="opacity:1" fill="#f9ab44" d="M 568.5,1526.5 C 593.5,1526.5 618.5,1526.5 643.5,1526.5C 649.619,1547.43 653.952,1568.76 656.5,1590.5C 619.167,1590.5 581.833,1590.5 544.5,1590.5C 551.947,1568.94 559.947,1547.61 568.5,1526.5 Z"/></g>
<g><path style="opacity:1" fill="#697dda" d="M 1431.5,1569.5 C 1429.83,1565.5 1428.17,1561.5 1426.5,1557.5C 1442.63,1543.2 1457.8,1528.2 1472,1512.5C 1471.25,1513.13 1470.42,1513.63 1469.5,1514C 1454.66,1527.34 1440,1540.84 1425.5,1554.5C 1423.83,1550.5 1422.17,1546.5 1420.5,1542.5C 1422.8,1536.79 1426.46,1531.95 1431.5,1528C 1446.07,1514.72 1463.07,1506.22 1482.5,1502.5C 1479.75,1517.99 1473.25,1531.66 1463,1543.5C 1454.03,1554.2 1443.53,1562.87 1431.5,1569.5 Z"/></g>
<g><path style="opacity:1" fill="#dfa14d" d="M 643.5,1526.5 C 649.167,1526.5 654.833,1526.5 660.5,1526.5C 664.167,1535.17 667.833,1543.83 671.5,1552.5C 676.5,1565.17 681.5,1577.83 686.5,1590.5C 676.681,1591.49 666.681,1591.83 656.5,1591.5C 656.5,1591.17 656.5,1590.83 656.5,1590.5C 653.952,1568.76 649.619,1547.43 643.5,1526.5 Z"/></g>
<g><path style="opacity:1" fill="#6a7dda" d="M 1435.5,1579.5 C 1434.89,1578.61 1434.56,1577.61 1434.5,1576.5C 1434.61,1575.88 1434.94,1575.38 1435.5,1575C 1449.33,1572.87 1463,1570.03 1476.5,1566.5C 1480.85,1525.32 1501.52,1495.49 1538.5,1477C 1539.79,1476.51 1541.13,1476.34 1542.5,1476.5C 1539.41,1513.08 1522.41,1541.25 1491.5,1561C 1508.6,1556.29 1525.27,1550.13 1541.5,1542.5C 1540.63,1506.24 1553.3,1475.74 1579.5,1451C 1583.99,1447.59 1588.66,1444.42 1593.5,1441.5C 1596.51,1477.64 1584.84,1508.14 1558.5,1533C 1573.21,1526.39 1587.38,1518.56 1601,1509.5C 1594.43,1474.12 1602.43,1442.46 1625,1414.5C 1628.2,1410.96 1631.7,1407.8 1635.5,1405C 1636.6,1404.57 1637.27,1405.07 1637.5,1406.5C 1642.83,1430.21 1640.66,1453.21 1631,1475.5C 1627.5,1482.84 1623.84,1489.84 1620,1496.5C 1624.33,1493.17 1628.67,1489.83 1633,1486.5C 1643.11,1452.44 1664.28,1427.94 1696.5,1413C 1701.01,1411.11 1705.67,1409.94 1710.5,1409.5C 1702.32,1446.34 1680.99,1472.5 1646.5,1488C 1641.92,1489.64 1637.26,1490.98 1632.5,1492C 1626.83,1496.33 1621.17,1500.67 1615.5,1505C 1650.79,1495.59 1683.46,1501.26 1713.5,1522C 1715.39,1523.1 1716.06,1524.43 1715.5,1526C 1676.07,1542.03 1639.24,1537.53 1605,1512.5C 1590.93,1520.79 1576.76,1528.95 1562.5,1537C 1596.18,1535.44 1625.35,1545.94 1650,1568.5C 1650.78,1570.29 1651.95,1571.79 1653.5,1573C 1634.38,1579.98 1615.05,1580.32 1595.5,1574C 1576.32,1568.75 1559.99,1558.92 1546.5,1544.5C 1529.75,1552.81 1512.42,1559.64 1494.5,1565C 1523.9,1567.46 1549.07,1578.96 1570,1599.5C 1573.99,1604.15 1577.49,1609.15 1580.5,1614.5C 1538.3,1618.9 1504.63,1603.9 1479.5,1569.5C 1465.04,1573.78 1450.37,1577.12 1435.5,1579.5 Z"/></g>
<g><path style="opacity:1" fill="#164ea8" d="M 1617.5,1513.5 C 1618.96,1512.84 1620.63,1512.51 1622.5,1512.5C 1649.33,1514.85 1675.99,1518.35 1702.5,1523C 1674,1521.55 1645.66,1518.38 1617.5,1513.5 Z"/></g>
<g><path style="opacity:1" fill="#114ca6" d="M 1535.5,1484.5 C 1536.53,1484.9 1536.69,1485.56 1536,1486.5C 1520.65,1509.87 1504.31,1532.54 1487,1554.5C 1489,1550.19 1491.33,1545.85 1494,1541.5C 1507.66,1522.34 1521.5,1503.34 1535.5,1484.5 Z"/></g>
<g><path style="opacity:1" fill="#134ca7" d="M 1586.5,1454.5 C 1587.04,1454.56 1587.38,1454.89 1587.5,1455.5C 1575.55,1482.06 1562.55,1508.06 1548.5,1533.5C 1559.67,1506.82 1572.33,1480.49 1586.5,1454.5 Z"/></g>
<g><path style="opacity:1" fill="#154da8" d="M 1631.5,1417.5 C 1632.12,1417.92 1632.46,1418.58 1632.5,1419.5C 1624.73,1447.63 1615.9,1475.3 1606,1502.5C 1612.96,1473.79 1621.46,1445.45 1631.5,1417.5 Z"/></g>
<g><path style="opacity:1" fill="#0f4ba5" d="M 1701.5,1417.5 C 1702.53,1417.9 1702.69,1418.56 1702,1419.5C 1683.46,1439.88 1664.46,1459.88 1645,1479.5C 1644.33,1478.83 1644.33,1478.17 1645,1477.5C 1663.67,1457.33 1682.51,1437.33 1701.5,1417.5 Z"/></g>
<g><path style="opacity:1" fill="#0e4ba5" d="M 1426.5,1557.5 C 1426.44,1556.39 1426.11,1555.39 1425.5,1554.5C 1440,1540.84 1454.66,1527.34 1469.5,1514C 1470.42,1513.63 1471.25,1513.13 1472,1512.5C 1457.8,1528.2 1442.63,1543.2 1426.5,1557.5 Z"/></g>
<g><path style="opacity:1" fill="#6f7fdd" d="M 671.5,1552.5 C 810.5,1552.5 949.5,1552.5 1088.5,1552.5C 1079.3,1574.76 1070.3,1597.09 1061.5,1619.5C 1053.44,1638.67 1045.78,1658 1038.5,1677.5C 1020.91,1678.49 1003.24,1678.82 985.5,1678.5C 897.833,1678.5 810.167,1678.5 722.5,1678.5C 719.5,1671.17 716.5,1663.83 713.5,1656.5C 704.481,1634.43 695.481,1612.43 686.5,1590.5C 681.5,1577.83 676.5,1565.17 671.5,1552.5 Z"/></g>
<g><path style="opacity:1" fill="#164ea8" d="M 1557.5,1546.5 C 1557.92,1545.88 1558.58,1545.54 1559.5,1545.5C 1587.87,1552.47 1615.87,1560.64 1643.5,1570C 1641.83,1570.67 1640.17,1570.67 1638.5,1570C 1611.26,1562.94 1584.26,1555.11 1557.5,1546.5 Z"/></g>
<g><path style="opacity:1" fill="#e2e6fe" d="M 279.5,1558.5 C 295.892,1558 302.392,1565.67 299,1581.5C 291.903,1591.07 283.403,1592.57 273.5,1586C 265.484,1574.59 267.484,1565.43 279.5,1558.5 Z"/></g>
<g><path style="opacity:1" fill="#f9aa44" d="M 376.5,1468.5 C 416.41,1486.78 456.41,1505.12 496.5,1523.5C 496.833,1523.17 497.167,1522.83 497.5,1522.5C 490.791,1510.41 484.125,1498.41 477.5,1486.5C 476.65,1484.51 476.15,1482.51 476,1480.5C 477.697,1483.02 479.53,1485.35 481.5,1487.5C 489.937,1500.86 498.27,1514.36 506.5,1528C 514.941,1531.97 523.441,1535.8 532,1539.5C 534.678,1535.48 536.844,1531.14 538.5,1526.5C 544.5,1526.5 550.5,1526.5 556.5,1526.5C 548.439,1547.68 540.773,1569.01 533.5,1590.5C 532.833,1590.83 532.167,1591.17 531.5,1591.5C 525.167,1591.5 518.833,1591.5 512.5,1591.5C 517.581,1577.5 523.414,1562.83 530,1547.5C 530.684,1546.22 530.517,1545.05 529.5,1544C 520.824,1539.28 511.824,1535.45 502.5,1532.5C 484.931,1535.76 467.264,1537.93 449.5,1539C 464.754,1534.95 480.087,1531.28 495.5,1528C 453.599,1507.88 411.599,1488.05 369.5,1468.5C 365.722,1466.11 361.722,1463.94 357.5,1462C 358,1461.83 358.5,1461.67 359,1461.5C 364.584,1464.54 370.417,1466.88 376.5,1468.5 Z"/></g>
<g><path style="opacity:1" fill="#114ca6" d="M 1488.5,1572.5 C 1489.25,1571.43 1490.25,1571.26 1491.5,1572C 1516.9,1583.2 1541.9,1595.2 1566.5,1608C 1565.5,1608.67 1564.5,1608.67 1563.5,1608C 1538.27,1596.72 1513.27,1584.88 1488.5,1572.5 Z"/></g>
<g><path style="opacity:1" fill="#fece72" d="M 543.5,1590.5 C 543.833,1590.5 544.167,1590.5 544.5,1590.5C 581.833,1590.5 619.167,1590.5 656.5,1590.5C 656.5,1590.83 656.5,1591.17 656.5,1591.5C 657.709,1613.15 657.709,1634.82 656.5,1656.5C 656.167,1656.5 655.833,1656.5 655.5,1656.5C 598.833,1656.5 542.167,1656.5 485.5,1656.5C 487.832,1650.5 490.165,1644.5 492.5,1638.5C 495.538,1632.41 498.204,1626.07 500.5,1619.5C 504.323,1610.01 508.323,1600.68 512.5,1591.5C 518.833,1591.5 525.167,1591.5 531.5,1591.5C 525.973,1607.58 520.139,1623.58 514,1639.5C 512.766,1646.93 515.6,1649.1 522.5,1646C 529.996,1627.68 536.996,1609.18 543.5,1590.5 Z"/></g>
<g><path style="opacity:1" fill="#fedc9c" d="M 533.5,1590.5 C 536.833,1590.5 540.167,1590.5 543.5,1590.5C 536.996,1609.18 529.996,1627.68 522.5,1646C 515.6,1649.1 512.766,1646.93 514,1639.5C 520.139,1623.58 525.973,1607.58 531.5,1591.5C 532.167,1591.17 532.833,1590.83 533.5,1590.5 Z"/></g>
<g><path style="opacity:1" fill="#e5c178" d="M 686.5,1590.5 C 695.481,1612.43 704.481,1634.43 713.5,1656.5C 694.5,1656.5 675.5,1656.5 656.5,1656.5C 657.709,1634.82 657.709,1613.15 656.5,1591.5C 666.681,1591.83 676.681,1591.49 686.5,1590.5 Z"/></g>
<g><path style="opacity:1" fill="#f9aa43" d="M 1061.5,1619.5 C 1158.5,1619.5 1255.5,1619.5 1352.5,1619.5C 1351.91,1627.19 1351.08,1634.85 1350,1642.5C 1347.17,1654.47 1344.67,1666.47 1342.5,1678.5C 1241,1678.83 1139.67,1678.5 1038.5,1677.5C 1045.78,1658 1053.44,1638.67 1061.5,1619.5 Z"/></g>
<g><path style="opacity:1" fill="#dfa14c" d="M 1353.5,1618.5 C 1386.24,1618.17 1418.91,1618.51 1451.5,1619.5C 1454.13,1626.41 1457.13,1633.07 1460.5,1639.5C 1465.22,1652.6 1470.22,1665.6 1475.5,1678.5C 1431.17,1678.5 1386.83,1678.5 1342.5,1678.5C 1344.67,1666.47 1347.17,1654.47 1350,1642.5C 1351.08,1634.85 1351.91,1627.19 1352.5,1619.5C 1353.17,1619.5 1353.5,1619.17 1353.5,1618.5 Z"/></g>
<g><path style="opacity:1" fill="#134da7" d="M 1449.5,1612.5 C 1460.83,1620.51 1471.83,1629.01 1482.5,1638C 1471.86,1631.9 1461.53,1625.07 1451.5,1617.5C 1450.07,1616.22 1449.4,1614.55 1449.5,1612.5 Z"/></g>
<g><path style="opacity:1" fill="#697cd9" d="M 1439.5,1588.5 C 1462.61,1599.7 1479.95,1616.7 1491.5,1639.5C 1492.46,1641.75 1493.12,1644.08 1493.5,1646.5C 1481.9,1646.85 1470.9,1644.51 1460.5,1639.5C 1457.13,1633.07 1454.13,1626.41 1451.5,1619.5C 1451.5,1618.83 1451.5,1618.17 1451.5,1617.5C 1461.53,1625.07 1471.86,1631.9 1482.5,1638C 1471.83,1629.01 1460.83,1620.51 1449.5,1612.5C 1445.6,1604.82 1442.27,1596.82 1439.5,1588.5 Z"/></g>
<g><path style="opacity:1" fill="#edf0fc" d="M 492.5,1638.5 C 490.165,1644.5 487.832,1650.5 485.5,1656.5C 480.771,1667.69 476.437,1679.02 472.5,1690.5C 462.249,1691.47 451.915,1691.81 441.5,1691.5C 441.5,1697.5 441.5,1703.5 441.5,1709.5C 546.833,1709.5 652.167,1709.5 757.5,1709.5C 757.5,1703.5 757.5,1697.5 757.5,1691.5C 747.5,1691.5 737.5,1691.5 727.5,1691.5C 725.637,1687.25 723.97,1682.91 722.5,1678.5C 810.167,1678.5 897.833,1678.5 985.5,1678.5C 985.5,1688.83 985.5,1699.17 985.5,1709.5C 1166.17,1709.5 1346.83,1709.5 1527.5,1709.5C 1527.5,1699.17 1527.5,1688.83 1527.5,1678.5C 1510.17,1678.5 1492.83,1678.5 1475.5,1678.5C 1470.22,1665.6 1465.22,1652.6 1460.5,1639.5C 1470.9,1644.51 1481.9,1646.85 1493.5,1646.5C 1493.12,1644.08 1492.46,1641.75 1491.5,1639.5C 1540.69,1644.04 1589.69,1650.2 1638.5,1658C 1665.45,1662.32 1691.79,1668.99 1717.5,1678C 1725.55,1681.26 1732.38,1686.09 1738,1692.5C 1738.67,1694.83 1738.67,1697.17 1738,1699.5C 1735.5,1703.33 1732.33,1706.5 1728.5,1709C 1705.88,1719.57 1682.21,1726.91 1657.5,1731C 1577.7,1744.79 1497.37,1754.13 1416.5,1759C 1195.01,1773.01 973.341,1776.34 751.5,1769C 632.127,1765.77 513.127,1757.44 394.5,1744C 354.736,1739.37 315.403,1732.37 276.5,1723C 261.979,1719.27 248.312,1713.61 235.5,1706C 227.936,1697.22 229.269,1689.89 239.5,1684C 255.684,1675.83 272.684,1669.83 290.5,1666C 357.236,1652.57 424.569,1643.41 492.5,1638.5 Z"/></g>
<g><path style="opacity:1" fill="#dfa04c" d="M 655.5,1656.5 C 655.833,1656.5 656.167,1656.5 656.5,1656.5C 675.5,1656.5 694.5,1656.5 713.5,1656.5C 716.5,1663.83 719.5,1671.17 722.5,1678.5C 723.97,1682.91 725.637,1687.25 727.5,1691.5C 701.5,1691.5 675.5,1691.5 649.5,1691.5C 652.559,1680.03 654.559,1668.37 655.5,1656.5 Z"/></g>
<g><path style="opacity:1" fill="#f9ab43" d="M 485.5,1656.5 C 542.167,1656.5 598.833,1656.5 655.5,1656.5C 654.559,1668.37 652.559,1680.03 649.5,1691.5C 590.331,1691.83 531.331,1691.5 472.5,1690.5C 476.437,1679.02 480.771,1667.69 485.5,1656.5 Z"/></g>
<g><path style="opacity:1" fill="#fece73" d="M 1038.5,1677.5 C 1139.67,1678.5 1241,1678.83 1342.5,1678.5C 1386.83,1678.5 1431.17,1678.5 1475.5,1678.5C 1492.83,1678.5 1510.17,1678.5 1527.5,1678.5C 1527.5,1688.83 1527.5,1699.17 1527.5,1709.5C 1346.83,1709.5 1166.17,1709.5 985.5,1709.5C 985.5,1699.17 985.5,1688.83 985.5,1678.5C 1003.24,1678.82 1020.91,1678.49 1038.5,1677.5 Z"/></g>
<g><path style="opacity:1" fill="#fece73" d="M 472.5,1690.5 C 531.331,1691.5 590.331,1691.83 649.5,1691.5C 675.5,1691.5 701.5,1691.5 727.5,1691.5C 737.5,1691.5 747.5,1691.5 757.5,1691.5C 757.5,1697.5 757.5,1703.5 757.5,1709.5C 652.167,1709.5 546.833,1709.5 441.5,1709.5C 441.5,1703.5 441.5,1697.5 441.5,1691.5C 451.915,1691.81 462.249,1691.47 472.5,1690.5 Z"/></g>
</svg>
